<?xml version="1.0" encoding="UTF-8" standalone="no"?><!DOCTYPE svg PUBLIC "-//W3C//DTD SVG 1.1//EN" "http://www.w3.org/Graphics/SVG/1.1/DTD/svg11.dtd"><svg width="100%" height="100%" viewBox="0 0 667 284" version="1.1" xmlns="http://www.w3.org/2000/svg" xmlns:xlink="http://www.w3.org/1999/xlink" xml:space="preserve" xmlns:serif="http://www.serif.com/" style="fill-rule:evenodd;clip-rule:evenodd;stroke-linecap:round;stroke-linejoin:round;stroke-miterlimit:1.5;"><g id="no-background" serif:id="no background"><g><path d="M270.699,171.835c-0.974,-1.435 -0.769,-5.485 0.666,-11.996c0.872,-4.152 1.436,-5.639 2.205,-5.639c0.769,-0 0.564,5.998 -0.256,9.484c-1.231,5.075 -1.128,5.383 1.538,5.383c3.127,-0 2.922,0.923 -0.564,2.666l-2.769,1.384l-0.82,-1.282Z" style="fill:#e2ddd8;fill-rule:nonzero;"/><path d="M290.488,166.657c-0,-0.717 0.82,-1.435 2.973,-2.46c1.589,-0.769 3.999,-2.205 5.383,-3.127c1.487,-1.077 3.025,-1.744 3.999,-1.744l1.589,0l-1.641,2.051c-2.358,2.974 -6.715,5.639 -9.791,5.998c-2.256,0.257 -2.512,0.205 -2.512,-0.718Z" style="fill:#e2ddd8;fill-rule:nonzero;"/><path d="M313.557,147.33c0,-1.281 0.667,-2.871 2.256,-5.383c3.742,-5.793 5.28,-9.279 7.228,-16.2c0.872,-3.076 0.872,-7.433 -0.102,-16.251c-0.256,-2.717 -0.205,-2.973 0.769,-2.973c1.384,-0 1.64,1.076 1.999,9.894c0.154,4.306 0.513,7.331 0.718,6.921c0.256,-0.359 0.308,-1.025 0.205,-1.487c-0.154,-0.461 -0.051,-1.384 0.205,-2.05c0.359,-0.975 0.513,-0.411 0.82,2.819c0.308,3.076 0.205,4.717 -0.461,7.024c-0.461,1.64 -0.82,3.691 -0.82,4.562c-0,2.41 -1.436,2 -1.846,-0.564l-0.359,-2.05l-1.333,3.229c-2.358,5.691 -4.614,9.536 -6.972,11.945l-2.307,2.41l0,-1.846Z" style="fill:#e2ddd8;fill-rule:nonzero;"/></g><g><path d="M277.671,142.973c0,-0.308 0.256,-0.667 0.513,-0.821c0.307,-0.153 0.512,-0.615 0.512,-0.974c0,-1.333 8.408,-14.149 9.28,-14.149c0.615,0 0.615,4.46 -0,4.819c-0.513,0.359 -4.666,6.511 -6.255,9.382c-0.974,1.743 -1.538,2.204 -2.614,2.204c-0.821,0 -1.436,-0.205 -1.436,-0.461Z" style="fill:#d4ccc7;fill-rule:nonzero;"/><path d="M306.38,105.651c-0,-0.769 4.358,-3.127 7.28,-3.947c1.589,-0.462 3.229,-1.282 3.588,-1.795c0.359,-0.512 1.538,-1.332 2.615,-1.743c1.897,-0.82 1.897,-0.82 1.897,0.462c-0,1.64 -2.769,4.152 -5.383,4.87c-1.128,0.308 -2.82,0.974 -3.743,1.538c-1.64,0.923 -6.254,1.384 -6.254,0.615Z" style="fill:#d4ccc7;fill-rule:nonzero;"/></g><g><path d="M271.263,172.604c-0.461,-0.717 -0.461,-6.1 -0,-8.202c0.205,-0.82 0.666,-1.487 1.076,-1.487c0.564,0 0.718,0.872 0.718,3.794c0,2.102 0.154,3.896 0.41,3.998c0.205,0.103 -0.153,0.667 -0.769,1.333c-0.769,0.821 -1.179,1.026 -1.435,0.564Z" style="fill:#c0b0a8;fill-rule:nonzero;"/><path d="M284.438,167.939c0.154,-1.025 0.513,-1.179 3.127,-1.333c3.538,-0.205 4.102,0.923 0.923,1.846c-3.127,0.974 -4.255,0.82 -4.05,-0.513Z" style="fill:#c0b0a8;fill-rule:nonzero;"/><path d="M272.596,157.173c0.564,-5.178 3.845,-13.124 6.408,-15.738l1.23,-1.231l0,1.897c0,1.077 -0.871,3.743 -2.05,6.357c-1.128,2.512 -2.41,6.203 -2.922,8.203c-0.718,3.127 -1.026,3.691 -1.948,3.691c-1.026,-0 -1.077,-0.154 -0.718,-3.179Z" style="fill:#c0b0a8;fill-rule:nonzero;"/><path d="M286.284,130.515c0.359,-0.359 0.615,-1.076 0.615,-1.589c-0,-0.564 0.769,-1.948 1.692,-3.127c0.923,-1.179 2.255,-3.025 2.922,-4.153c1.999,-3.281 6.306,-8.459 10.048,-12.047c4.665,-4.409 5.024,-4.666 7.126,-5.127c1.64,-0.359 1.794,-0.308 1.794,0.718c-0.051,0.974 -3.742,4.306 -4.973,4.46c-0.41,0.051 -4.767,4.87 -8.561,9.433c-0.974,1.128 -2.409,3.127 -3.178,4.409c-4.05,6.459 -5.024,7.638 -6.562,7.638c-1.18,0 -1.385,-0.154 -0.923,-0.615Z" style="fill:#c0b0a8;fill-rule:nonzero;"/><path d="M323.298,121.544c-0,-3.076 -0.359,-7.947 -0.769,-10.92c-0.41,-2.973 -0.769,-7.28 -0.769,-9.587l-0,-4.255l1.897,0c1.794,0 1.845,0 0.922,1.026c-0.769,0.871 -0.871,1.486 -0.512,4.716c0.615,5.844 0.666,6.408 1.076,13.79c0.359,7.639 0.052,10.715 -1.076,10.715c-0.616,0 -0.769,-1.025 -0.769,-5.485Z" style="fill:#c0b0a8;fill-rule:nonzero;"/><path d="M326.271,124.978c0.103,-1.127 0.308,-2.05 0.41,-2.05c0.103,-0 0.205,0.923 0.205,2.05c0,1.128 -0.153,2.051 -0.41,2.051c-0.205,0 -0.307,-0.923 -0.205,-2.051Z" style="fill:#c0b0a8;fill-rule:nonzero;"/></g><g><path d="M383.843,145.382c-0,-2.922 -0.257,-6.511 -0.564,-8.049c-0.923,-4.819 -0.821,-5.177 1.538,-5.177c1.128,-0 2.871,0.358 3.845,0.717c1.999,0.872 1.845,0.103 2.101,9.792c0.154,7.434 -0.102,7.946 -3.947,7.946l-3.025,0l0.052,-5.229Z" style="fill:#df9d5d;fill-rule:nonzero;"/><path d="M330.988,144.613c-0,-0.512 -0.359,-1.384 -0.769,-1.897c-0.872,-1.179 -1.026,-4.511 -0.257,-5.998c0.41,-0.769 1.077,-0.974 3.025,-0.974c2.82,0 2.973,0.154 3.435,4.255c0.256,2.307 0.102,2.871 -0.974,4.102c-1.487,1.64 -4.46,1.999 -4.46,0.512Z" style="fill:#df9d5d;fill-rule:nonzero;"/><path d="M326.886,132.72c-0.615,-1.231 -0.666,-5.178 -0.051,-5.178c0.461,-0 0.82,-2.461 1.384,-9.331c0.154,-2.05 0.564,-3.691 1.026,-4.05c0.41,-0.307 0.717,-0.922 0.717,-1.281c0,-0.462 0.615,-0.718 1.743,-0.718c1.538,-0 1.795,0.205 2.051,1.538c0.154,0.82 0.461,2.204 0.615,3.076c0.205,1.128 0.564,1.538 1.333,1.538c0.923,-0 0.974,0.205 0.718,2.717c-0.205,1.435 -0.462,4.46 -0.615,6.664c-0.257,3.435 -0.411,3.948 -1.282,3.948c-0.513,-0 -0.974,0.256 -0.974,0.513c-0,0.307 -0.359,0.512 -0.769,0.512c-0.41,0 -0.769,0.257 -0.769,0.513c-0,0.308 -1.025,0.513 -2.307,0.513c-1.743,-0 -2.41,-0.257 -2.82,-0.974Z" style="fill:#df9d5d;fill-rule:nonzero;"/><path d="M355.544,106.061c-2.82,-0.871 -3.537,-1.538 -3.537,-3.383c-0,-1.487 0.205,-1.795 1.794,-2.358c0.974,-0.359 1.794,-0.975 1.794,-1.333c0,-0.41 0.667,-0.667 1.743,-0.667c1.282,0 1.794,0.257 2,1.025c0.153,0.616 0.717,1.026 1.281,1.026c1.128,-0 1.641,0.923 1.641,2.871c-0,2.409 -0.872,3.281 -3.23,3.229c-1.179,0 -2.768,-0.205 -3.486,-0.41Z" style="fill:#df9d5d;fill-rule:nonzero;"/></g><g><path d="M275.774,157.994c-0.153,-0.462 -0.051,-2.666 0.308,-4.922c0.41,-3.025 0.923,-4.614 1.845,-5.844c0.718,-0.923 1.282,-1.846 1.282,-2c0,-0.205 1.384,-3.178 3.076,-6.562c2.563,-5.229 3.64,-6.767 6.306,-9.33c1.794,-1.692 3.588,-3.537 3.998,-4.101c0.411,-0.564 1.436,-1.436 2.256,-1.897c1.077,-0.615 1.589,-1.333 1.794,-2.563c0.206,-1.385 0.564,-1.743 2.154,-2.205c2.768,-0.769 3.127,-1.333 3.127,-5.024c-0,-3.23 0.513,-4.511 2.512,-5.742c0.461,-0.256 2.307,-1.486 4.101,-2.717c1.743,-1.179 4.409,-2.512 5.793,-2.973c1.692,-0.462 3.538,-1.641 5.383,-3.281l2.82,-2.563l0.461,2.614c0.513,2.974 -0.461,5.793 -2.204,6.357c-0.616,0.154 -1.538,1.282 -2.102,2.461c-0.564,1.179 -1.692,2.819 -2.564,3.64c-0.82,0.82 -1.537,1.999 -1.537,2.614c-0,1.384 -0.923,2.307 -2.41,2.307c-1.64,0 -3.691,2.256 -4.409,4.973c-0.41,1.589 -1.076,2.666 -2.153,3.384c-2.051,1.435 -2.307,1.845 -2.307,4.101c0,2.512 -1.282,4.46 -2.922,4.46c-1.487,-0 -5.075,3.486 -7.075,6.87c-1.128,1.948 -1.64,2.358 -2.871,2.358c-1.589,-0 -4.05,2.05 -4.05,3.383c0,1.077 1.436,0.872 2.051,-0.307c0.461,-0.821 1.077,-1.026 3.537,-1.026c2.666,0 3.025,0.103 3.333,1.18c0.563,2.204 0.358,4.46 -0.462,4.46c-0.461,-0 -1.435,0.615 -2.204,1.384c-1.436,1.435 -3.435,2.717 -4.307,2.717c-0.256,-0 -1.23,0.564 -2.101,1.23c-0.923,0.667 -2.359,1.384 -3.281,1.59c-0.872,0.153 -1.897,0.666 -2.256,1.076c-0.82,1.025 -4.512,0.974 -4.922,-0.102Z" style="fill:#b98484;fill-rule:nonzero;"/></g><g><path d="M271.571,167.17c-0,-4.973 0.717,-8.356 1.794,-8.715c0.564,-0.205 1.23,4.152 1.23,7.946c0,1.589 0.103,1.743 1.231,1.436c2.512,-0.616 11.586,-0.974 11.586,-0.462c-0,1.026 -3.281,2.102 -8.203,2.769c-2.666,0.307 -5.383,0.922 -5.998,1.332c-0.615,0.359 -1.282,0.667 -1.435,0.667c-0.154,-0 -0.257,-2.256 -0.205,-4.973Z" style="fill:#9e8c85;fill-rule:nonzero;"/><path d="M298.69,162.044c0,-1.026 0.923,-2.256 3.743,-4.973c2.05,-2 4.767,-4.87 6.049,-6.306c1.897,-2.204 2.614,-2.717 3.947,-2.717c0.923,0 1.641,0.154 1.641,0.359c-0,1.794 -13.278,15.021 -15.072,15.021c-0.154,-0 -0.308,-0.615 -0.308,-1.384Z" style="fill:#9e8c85;fill-rule:nonzero;"/></g><g><path d="M364.31,170.092c0,-0.256 -0.461,-0.512 -0.974,-0.512c-0.564,-0 -1.179,-0.205 -1.333,-0.513c-0.153,-0.256 -1.127,-0.513 -2.102,-0.513c-0.974,0 -1.743,-0.205 -1.743,-0.461c0,-0.256 -0.563,-0.615 -1.281,-0.769c-0.718,-0.205 -1.282,-0.513 -1.282,-0.718c0,-0.205 -0.205,-0.666 -0.461,-1.076c-0.41,-0.616 -0.615,-0.616 -1.333,0.102c-0.872,0.923 -4.358,1.231 -4.358,0.41c0,-0.256 -0.359,-0.871 -0.82,-1.333c-0.666,-0.615 -0.872,-1.896 -0.923,-5.024l-0.051,-4.203l2.409,-0.154c2,-0.154 2.769,0.102 4.871,1.538c4.972,3.435 9.176,4.614 15.072,4.152l3.896,-0.307l0.308,1.691c0.615,3.025 0.41,5.64 -0.41,5.64c-0.411,-0 -0.769,0.256 -0.769,0.512c-0,0.308 -1.026,0.513 -2.307,0.513c-1.59,-0 -2.41,0.256 -2.615,0.769c-0.359,0.871 -3.794,1.077 -3.794,0.256Z" style="fill:#cd8c4f;fill-rule:nonzero;"/><path d="M332.32,147.228c-0.922,-0.872 -1.179,-6.152 -0.307,-5.588c0.307,0.154 0.513,0.82 0.513,1.384c-0,0.974 0.102,0.974 1.23,-0.359c1.025,-1.179 1.179,-1.692 0.718,-2.768c-0.257,-0.718 -0.462,-1.384 -0.462,-1.436c0.359,-1.333 -1.845,-1.691 -2.307,-0.41c-0.461,1.179 -1.23,0.359 -1.23,-1.333c-0,-1.23 -0.205,-1.486 -1.282,-1.486c-1.179,-0 -1.281,-0.206 -1.281,-2.051c-0,-1.948 0.051,-1.999 1.076,-1.436c0.872,0.564 1.128,0.513 1.538,-0.256c0.308,-0.461 0.718,-0.769 1.025,-0.615c0.257,0.205 0.462,0.051 0.462,-0.205c-0,-0.308 0.461,-0.564 1.025,-0.564c0.769,-0 1.026,-0.359 1.026,-1.282c-0,-1.025 0.256,-1.281 1.23,-1.281c1.025,-0 1.282,0.359 1.743,2.768c0.308,1.538 1.179,3.999 1.897,5.383c1.435,2.922 1.64,5.383 0.512,6.511c-0.41,0.461 -0.769,1.435 -0.769,2.204c0,2.922 -4.357,4.819 -6.357,2.82Z" style="fill:#cd8c4f;fill-rule:nonzero;"/><path d="M333.192,116.622c-0.666,-0.923 -1.282,-2.358 -1.487,-3.23c-0.256,-1.281 -0.051,-1.691 1.026,-2.409c0.769,-0.564 1.333,-1.384 1.333,-2.051c-0,-1.64 0.922,-2.409 2.973,-2.409l1.794,-0l-0.359,5.485c-0.205,3.025 -0.512,5.691 -0.615,5.896c-0.154,0.256 -1.025,0.41 -1.897,0.41c-1.281,-0 -1.896,-0.359 -2.768,-1.692Z" style="fill:#cd8c4f;fill-rule:nonzero;"/></g><g><path d="M356.364,171.323c-1.743,-0.41 -3.332,-1.384 -3.332,-2c-0,-0.359 -0.923,-1.025 -2.051,-1.589c-1.845,-0.871 -2.05,-1.179 -2.05,-2.871c-0,-2.102 1.23,-2.768 1.794,-0.974c0.41,1.333 1.487,0.872 2.102,-0.82c0.461,-1.282 0.512,-1.333 1.333,-0.462c0.512,0.462 1.128,0.769 1.384,0.564c0.307,-0.153 0.769,0.257 1.128,0.872c0.769,1.435 1.538,1.999 2.409,1.692c0.308,-0.103 0.615,0.154 0.615,0.564c0,0.41 0.257,0.615 0.564,0.461c0.359,-0.256 0.462,0.461 0.359,2.153c-0.154,2.358 -0.205,2.461 -1.692,2.563c-0.82,0 -1.999,-0.051 -2.563,-0.153Z" style="fill:#d78a41;fill-rule:nonzero;"/><path d="M383.33,165.837c-1.435,-2.973 -1.435,-6.613 0.051,-8.612c0.82,-1.077 1.077,-2.102 0.974,-3.486c-0.051,-1.128 0.154,-2.154 0.462,-2.359c0.307,-0.205 0.82,-0.923 1.076,-1.64c0.308,-0.923 0.769,-1.231 1.436,-1.026c1.128,0.308 2.255,-1.384 1.743,-2.614c-0.359,-0.82 -0.462,-2.666 -0.257,-5.588c0.103,-0.872 0.411,-1.179 1.333,-1.179c2.461,-0 2.871,0.461 2.871,3.127c0,1.538 0.205,2.512 0.564,2.512c0.872,0 0.103,6.767 -1.076,9.382c-0.564,1.179 -1.026,3.229 -1.026,4.511c0,1.999 -0.359,2.768 -2.307,5.28c-1.281,1.641 -2.307,3.179 -2.307,3.435c0,0.257 -0.564,0.462 -1.23,0.462c-0.974,-0 -1.487,-0.513 -2.307,-2.205Z" style="fill:#d78a41;fill-rule:nonzero;"/><path d="M333.5,153.585c-0.359,-1.128 -1.436,-3.025 -2.359,-4.153c-1.948,-2.307 -2.102,-2.922 -0.666,-3.281c0.666,-0.154 1.025,-0.718 1.025,-1.487c0,-1.538 0.82,-1.589 1.589,-0.051c0.923,1.641 1.59,1.948 2.615,1.026c0.872,-0.769 0.923,-0.616 0.923,3.024c-0,5.127 -0.41,7.075 -1.538,7.075c-0.564,-0 -1.128,-0.718 -1.589,-2.153Z" style="fill:#d78a41;fill-rule:nonzero;"/><path d="M329.091,142.563c-0.564,-0.205 -1.333,-1.59 -2.717,-5.024c-1.692,-4.102 -1.948,-6.973 -0.769,-7.947c1.025,-0.82 2.46,-0.461 2.614,0.769c0.103,0.564 0.462,1.231 0.872,1.538c0.359,0.257 0.615,0.821 0.512,1.179c-0.153,0.411 0.308,0.616 1.333,0.616c1.59,-0 2.512,0.717 1.59,1.281c-0.308,0.205 -0.513,0.718 -0.462,1.179c0.051,0.513 -0.205,1.487 -0.564,2.256c-0.564,1.179 -0.512,1.589 0.205,2.666c0.462,0.718 0.821,1.435 0.821,1.589c-0,0.308 -2.564,0.256 -3.435,-0.102Z" style="fill:#d78a41;fill-rule:nonzero;"/><path d="M335.089,129.849c-0,-0.41 -0.205,-0.769 -0.462,-0.769c-0.256,-0 -0.563,-0.872 -0.666,-1.897c-0.205,-1.794 -0,-3.179 0.872,-6.152c0.307,-0.974 0.205,-1.179 -0.769,-1.179c-0.821,-0 -1.077,-0.257 -0.923,-1.128c0.102,-0.923 0.512,-1.23 1.999,-1.333c1.641,-0.154 1.948,0 2.512,1.435c0.718,1.795 0.41,6.768 -0.461,7.075c-0.308,0.103 -0.564,0.667 -0.564,1.282c-0,1.692 -0.564,3.435 -1.077,3.435c-0.256,-0 -0.461,-0.359 -0.461,-0.769Z" style="fill:#d78a41;fill-rule:nonzero;"/><path d="M327.758,118.468c-0.154,-0.872 0.256,-2.359 1.23,-4.307c0.82,-1.589 1.487,-3.076 1.487,-3.332c-0,-1.025 3.383,-7.331 3.947,-7.331c0.974,-0.051 1.231,0.718 1.282,4.358c0.051,3.229 -0.051,3.537 -1.435,4.665c-0.821,0.615 -1.231,1.179 -0.923,1.179c1.025,-0 1.23,1.487 0.359,2.358c-0.821,0.769 -0.923,0.718 -1.436,-0.871c-0.564,-1.59 -0.615,-1.641 -0.923,-0.513c-0.153,0.718 -0.512,1.025 -0.871,0.82c-0.461,-0.256 -0.513,-0.051 -0.308,0.667c0.205,0.564 0.205,1.64 0,2.358c-0.41,1.794 -2.05,1.794 -2.409,-0.051Z" style="fill:#d78a41;fill-rule:nonzero;"/><path d="M360.414,103.703c0.154,-0.41 0,-1.025 -0.359,-1.435c-1.743,-1.846 -2.307,-4.255 -1.589,-6.204c0.41,-1.076 3.537,-1.076 6.049,-0.051c1.692,0.718 1.846,0.974 1.846,2.82c-0,1.128 -0.205,2.461 -0.461,2.973c-0.257,0.462 -0.616,1.282 -0.769,1.795c-0.205,0.666 -0.821,0.871 -2.666,0.871c-1.846,0 -2.307,-0.154 -2.051,-0.769Z" style="fill:#d78a41;fill-rule:nonzero;"/></g><g><path d="M282.695,149.791c-0.564,-1.23 -0.512,-1.435 0.769,-2.358c0.923,-0.667 1.384,-1.487 1.384,-2.41c0,-1.999 2.102,-4.152 4.05,-4.152c1.231,-0 1.743,-0.41 2.871,-2.358c2.051,-3.487 5.383,-6.665 7.331,-6.973c1.436,-0.205 1.641,-0.102 1.641,0.923c-0,1.026 0.307,1.179 2.461,1.333l2.409,0.154l0.308,5.434l-3.333,3.23c-1.897,1.794 -3.383,3.486 -3.383,3.793c-0,0.359 -0.359,0.616 -0.769,0.616c-0.41,-0 -1.128,0.564 -1.589,1.281c-0.616,0.974 -1.282,1.282 -2.564,1.282c-0.974,-0 -1.743,-0.205 -1.743,-0.513c0,-0.256 0.359,-0.512 0.82,-0.512c0.564,-0 0.718,-0.257 0.513,-0.821c-0.154,-0.461 -0.307,-1.025 -0.307,-1.281c-0,-0.923 -3.025,-0.462 -3.589,0.564c-0.308,0.564 -0.872,1.025 -1.282,1.025c-0.41,0 -0.769,0.205 -0.769,0.461c0,0.513 -3.332,2.615 -4.152,2.615c-0.257,-0 -0.769,-0.615 -1.077,-1.333Z" style="fill:#b17679;fill-rule:nonzero;"/><path d="M288.95,130.054c-0,-1.128 0.871,-3.076 2.665,-5.947c2.666,-4.204 2.718,-4.255 5.127,-4.563c2.666,-0.359 2.717,-0.461 2.461,-4.46c-0.051,-1.076 0.205,-2.256 0.512,-2.666c0.821,-0.974 4.307,-1.076 3.948,-0.102c-0.103,0.307 0.102,1.025 0.564,1.486c0.666,0.821 0.615,1.128 -0.462,3.281c-1.025,2 -1.589,2.512 -3.281,2.974c-1.794,0.513 -2.101,0.82 -2.307,2.307c-0.205,1.333 -0.666,1.948 -1.845,2.563c-0.923,0.462 -2.153,1.538 -2.768,2.461c-0.616,0.923 -1.897,2.256 -2.871,2.973l-1.743,1.333l-0,-1.64Z" style="fill:#b17679;fill-rule:nonzero;"/><path d="M305.201,122.313c0.256,-0.359 0.769,-1.641 1.128,-2.82c0.717,-2.666 2.614,-4.614 4.511,-4.87c0.872,-0.103 1.641,-0.615 1.948,-1.282c0.769,-1.794 1.795,-1.435 1.795,0.615c-0,2.307 -0.975,4.358 -2.102,4.358c-0.513,-0 -1.385,0.615 -1.948,1.435c-1.897,2.512 -2.769,3.179 -4.307,3.179c-1.128,-0 -1.384,-0.154 -1.025,-0.615Z" style="fill:#b17679;fill-rule:nonzero;"/></g><g><path d="M381.587,160.249c-0.513,-0.564 -1.077,-1.794 -1.23,-2.768c-0.257,-1.589 -0.462,-1.743 -1.949,-1.743c-1.999,-0 -2.307,-0.564 -2.307,-4.665c0,-2.974 0.052,-3.025 1.795,-3.743c0.974,-0.41 1.794,-1.128 1.794,-1.538c0,-0.615 0.513,-0.82 1.948,-0.82c2.102,0 3.691,1.333 3.691,3.025c0,0.717 0.308,0.871 1.384,0.666c1.282,-0.256 1.333,-0.154 0.975,1.436c-0.154,0.974 -0.667,2.102 -1.077,2.563c-0.718,0.769 -0.718,0.923 -0,1.538c1.077,0.871 1.025,1.076 -0.923,3.64c-0.974,1.23 -1.64,2.563 -1.538,2.922c0.359,0.974 -1.538,0.666 -2.563,-0.513Z" style="fill:#db8531;fill-rule:nonzero;"/><path d="M328.834,146.407c-0.82,-0.871 -1.435,-1.896 -1.435,-2.306c-0,-0.359 -0.564,-1.846 -1.282,-3.23c-1.538,-3.025 -1.743,-8.203 -0.512,-12.458c0.41,-1.487 0.871,-4.05 0.974,-5.742c0.307,-3.947 1.23,-7.023 1.999,-6.767c0.923,0.308 2.153,6.511 1.384,7.024c-0.307,0.205 -0.666,1.23 -0.717,2.255c-0.052,1.692 0.102,1.949 1.332,2.205c2.051,0.41 1.743,0.974 -0.615,1.384c-1.179,0.154 -1.999,0.513 -1.845,0.769c0.153,0.256 -0.154,0.82 -0.718,1.333c-0.564,0.513 -0.82,1.179 -0.666,1.487c0.205,0.307 0.461,1.128 0.563,1.845c0.103,0.718 0.513,1.692 0.974,2.153c0.411,0.462 0.616,1.128 0.411,1.385c-0.154,0.307 0.051,0.717 0.512,0.871c0.462,0.205 0.718,0.667 0.564,1.025c-0.154,0.411 0.308,1.026 1.179,1.436c2.307,1.23 2.974,6.1 0.974,6.664c-1.64,0.411 -1.538,0.462 -3.076,-1.333Z" style="fill:#db8531;fill-rule:nonzero;"/><path d="M323.349,130.361c-0,-0.564 0.308,-2.05 0.666,-3.332c0.974,-2.973 1.026,-1.538 0.103,1.794c-0.41,1.436 -0.769,2.102 -0.769,1.538Z" style="fill:#db8531;fill-rule:nonzero;"/><path d="M336.165,120.621c-0.564,-1.538 -0.717,-1.692 -1.589,-1.179c-1.23,0.769 -1.435,0.564 -1.948,-2.205c-0.718,-3.793 0.359,-4.767 2.205,-2.05c1.076,1.691 1.794,1.64 1.845,-0.103c0.103,-2.409 1.436,1.897 1.487,4.665c-0,3.179 -0.974,3.64 -2,0.872Z" style="fill:#db8531;fill-rule:nonzero;"/><path d="M360.26,103.601c0.205,-1.18 -0.153,-1.692 -1.076,-1.692c-0.615,-0 -1.231,-0.513 -1.538,-1.128l-0.462,-1.179l0,1.128c-0.102,2.819 -2.614,-0.769 -2.614,-3.743c-0,-1.384 0.205,-1.692 1.384,-1.897c0.769,-0.153 2.615,-0.153 4.101,0c2.205,0.257 2.717,0.462 2.717,1.282c0,0.718 -0.307,0.872 -1.23,0.718c-0.718,-0.103 -1.384,0.051 -1.487,0.359c-0.256,0.82 0.821,2.922 1.487,2.922c0.359,-0 0.461,0.512 0.308,1.281c-0.103,0.769 -0,1.282 0.358,1.282c0.359,0 0.462,0.256 0.308,0.513c-0.359,0.615 -2.358,0.717 -2.256,0.154Z" style="fill:#db8531;fill-rule:nonzero;"/></g><g><path d="M364.926,160.762c-0.667,-0.667 -0.821,-3.435 -0.308,-5.998c0.308,-1.436 0.513,-1.589 2.204,-1.589c2.256,-0 2.923,0.922 3.435,4.614c0.257,1.999 0.154,2.768 -0.359,3.127c-1.025,0.666 -4.255,0.564 -4.972,-0.154Z" style="fill:#dd821e;fill-rule:nonzero;"/><path d="M374.615,155.174c-1.026,-1.384 -1.231,-2.41 -1.487,-7.331c-0.154,-4.05 -0.461,-5.793 -0.923,-6.101c-0.41,-0.256 -0.717,-1.281 -0.717,-2.409c-0,-1.128 -0.206,-2.051 -0.513,-2.051c-0.256,0 -0.513,-0.359 -0.513,-0.769c0,-0.41 -0.307,-0.769 -0.666,-0.769c-2.102,0 -2.512,-7.382 -0.564,-9.689c1.692,-1.948 5.229,-1.333 7.638,1.282c0.667,0.717 1.743,1.23 2.461,1.23c2.051,-0 2.871,1.743 3.999,8.766c0.564,3.487 1.128,7.075 1.282,7.998c0.153,0.871 0.102,1.999 -0.205,2.512c-0.462,0.82 -0.564,0.82 -1.436,-0.205c-1.128,-1.333 -1.743,-1.436 -1.743,-0.308c0,0.41 -0.769,1.077 -1.743,1.487c-1.846,0.769 -1.897,1.077 -1.384,5.024c0.102,0.718 1.743,0.359 2.409,-0.513c0.616,-0.82 0.667,-0.717 0.718,0.923c0,1.538 -0.205,1.948 -1.128,2.205c-2.717,0.717 -4.306,0.358 -5.485,-1.282Z" style="fill:#dd821e;fill-rule:nonzero;"/></g><g><path d="M272.801,164.248c-0.308,-3.691 -0.154,-4.973 0.974,-9.228c1.538,-5.844 6.408,-15.995 10.048,-21.07c1.384,-1.948 3.537,-4.922 4.716,-6.613c1.231,-1.641 2.923,-4.102 3.743,-5.435c1.845,-2.922 3.588,-5.126 7.638,-9.535c2.974,-3.178 4.409,-4.05 4.409,-2.563c0,1.435 -1.025,3.383 -1.743,3.383c-0.974,0 -2.05,1.333 -1.384,1.743c0.564,0.359 0.256,2.974 -0.513,4.46c-0.256,0.462 -1.435,1.128 -2.717,1.538c-2.05,0.564 -2.46,1.026 -4.972,5.024c-1.487,2.41 -3.435,5.23 -4.358,6.204c-1.435,1.486 -7.895,13.483 -7.895,14.61c0,0.154 -0.564,1.077 -1.282,1.948c-0.717,1.026 -1.435,2.871 -1.743,4.717c-0.512,3.435 -0.102,4.511 1.333,3.23c0.513,-0.462 1.641,-1.026 2.461,-1.231c0.872,-0.154 2.256,-0.871 3.179,-1.538c0.871,-0.666 1.845,-1.23 2.101,-1.23c0.872,-0 2.871,-1.282 4.307,-2.717c0.769,-0.769 1.743,-1.384 2.153,-1.384c0.41,-0 1.23,-0.667 1.846,-1.538c0.615,-0.821 1.435,-1.538 1.845,-1.538c0.41,-0 0.718,-0.257 0.718,-0.615c-0,-0.308 1.487,-2 3.332,-3.743c4.511,-4.306 4.46,-6.869 -0.051,-5.383c-1.487,0.513 -1.948,0.513 -2.256,-0.051c-0.769,-1.179 -0.205,-2.922 1.436,-4.563c1.332,-1.333 1.64,-2.05 1.64,-3.845c0,-2.358 0.154,-2.563 3.64,-5.331c1.23,-0.974 2.717,-2.461 3.281,-3.333c0.564,-0.871 1.538,-1.64 2.102,-1.743c1.23,-0.153 2.256,-2.05 2.256,-4.152c-0,-0.923 0.563,-1.948 1.538,-2.922c0.871,-0.821 1.999,-2.461 2.563,-3.64c0.564,-1.179 1.487,-2.256 2.05,-2.461c0.564,-0.205 1.385,-1.025 1.795,-1.845c1.179,-2.205 1.794,-1.846 1.794,1.076c0,3.025 -0.871,5.127 -2.051,5.127c-1.179,-0 -1.948,1.025 -2.409,3.127c-0.513,2.768 -1.641,5.075 -2.461,5.075c-0.41,0 -0.923,0.615 -1.076,1.384c-0.359,1.385 -4.461,5.793 -5.383,5.793c-0.257,0 -0.462,0.564 -0.462,1.231c0,0.82 -0.359,1.333 -1.128,1.589l-1.179,0.308l1.333,0.615c2.41,1.128 3.025,1.897 3.025,4.152c-0,2.051 -0.564,2.974 -3.179,5.229c-1.435,1.282 -2.46,2.82 -2.46,3.794c-0,1.384 -2.051,4.255 -4.717,6.511c-1.281,1.076 -2.717,2.563 -3.23,3.281c-0.922,1.333 -4.613,4.101 -7.382,5.537c-0.718,0.358 -1.999,1.333 -2.871,2.102c-0.82,0.768 -2.358,1.537 -3.383,1.691c-4.204,0.615 -5.537,1.641 -7.28,5.486c-2.307,5.075 -3.23,4.87 -3.691,-0.718Z" style="fill:#a46a69;fill-rule:nonzero;"/></g><g><path d="M367.899,173.322c-0,-0.308 -1.23,-0.513 -2.666,-0.513c-2.563,0 -7.946,-1.127 -11.535,-2.358c-1.691,-0.564 -1.948,-1.076 -1.384,-2.614c0.359,-0.923 2.256,-1.128 2.256,-0.308c-0,1.128 1.897,2.563 3.127,2.358c1.077,-0.154 1.23,-0.41 1.077,-1.999c-0.052,-0.974 0.102,-1.948 0.41,-2.153c0.256,-0.154 0.512,0.051 0.512,0.461c0,0.513 0.308,0.667 0.769,0.513c0.411,-0.205 0.769,-0.615 0.769,-0.974c0,-0.359 0.359,-0.923 0.769,-1.282c0.616,-0.513 0.769,-0.359 1.026,0.872c0.564,2.512 0.717,2.717 1.794,2.717c0.564,-0 1.025,0.307 1.025,0.666c0.052,0.308 0.41,-0.051 0.821,-0.82c0.563,-1.077 1.025,-1.384 1.64,-1.128c1.743,0.769 3.179,0.872 3.179,0.308c-0,-0.308 0.358,-0.564 0.769,-0.564c0.82,-0 1.076,-1.795 0.256,-2.307c-0.256,-0.154 -0.359,-0.615 -0.205,-1.026c0.205,-0.41 -0.154,-0.769 -0.923,-0.922c-0.666,-0.154 -0.154,-0.257 1.128,-0.257c1.282,0 3.281,-0.051 4.511,-0.051l2.153,-0.051l0,-2.358c0,-3.025 0.718,-4.307 2.41,-4.307c1.076,0 1.179,0.154 0.718,0.718c-0.41,0.513 -0.462,0.82 -0.052,1.077c0.308,0.153 0.41,0.563 0.257,0.82c-0.205,0.256 -0.052,0.461 0.205,0.461c0.871,0 2.05,3.23 1.384,3.743c-0.359,0.256 -0.256,0.615 0.359,1.076c0.512,0.41 0.923,0.872 0.923,1.025c-0.154,1.333 0.102,1.949 1.025,2.256c1.076,0.41 1.076,0.462 -0.359,2.102c-1.128,1.333 -1.692,1.641 -2.922,1.436c-0.872,-0.103 -3.332,0.461 -6.203,1.486c-5.076,1.846 -9.023,2.666 -9.023,1.897Z" style="fill:#c3772f;fill-rule:nonzero;"/><path d="M347.034,165.889c-0.667,-0.308 -1.179,-1.026 -1.179,-1.692c-0,-0.564 -0.205,-1.282 -0.41,-1.538c-0.975,-1.128 -1.744,-4.87 -1.385,-6.716c0.564,-3.23 1.077,-3.794 3.281,-3.794c2.564,0 5.178,2.153 5.178,4.204c0,1.282 -0.102,1.384 -0.974,0.872c-0.513,-0.359 -1.333,-0.462 -1.794,-0.308c-0.718,0.256 -0.82,0.82 -0.564,2.973c0.205,1.436 0.615,2.974 1.025,3.384c0.41,0.359 0.615,1.025 0.462,1.435c-0.205,0.513 -0,0.769 0.564,0.769c0.461,0 0.666,0.257 0.512,0.513c-0.41,0.666 -3.281,0.615 -4.716,-0.102Z" style="fill:#c3772f;fill-rule:nonzero;"/><path d="M389.892,160.864c-0.051,-1.281 -0.154,-2.87 -0.205,-3.588c-0.051,-0.667 0.359,-2.307 0.923,-3.589c0.564,-1.281 1.076,-2.973 1.128,-3.845c0.102,-0.82 0.307,-1.948 0.512,-2.409c0.205,-0.513 0.154,-0.923 -0.154,-0.923c-0.512,0 -2.153,-3.076 -2.153,-4.05c0,-0.308 0.359,-0.41 0.769,-0.256c0.41,0.205 0.769,0.051 0.769,-0.257c0,-0.307 -0.205,-0.615 -0.512,-0.615c-0.257,-0.051 -0.821,-0.102 -1.128,-0.154c-0.359,-0.051 -0.667,-0.512 -0.718,-1.076c-0.051,-0.564 -0.205,-1.384 -0.41,-1.794c-0.205,-0.462 -0.256,-1.385 -0.205,-2.051c0.102,-0.82 -0.103,-1.231 -0.462,-1.128c-0.358,0.051 -0.666,-0.154 -0.666,-0.461c-0,-0.257 -0.205,-0.41 -0.461,-0.205c-0.257,0.153 -0.616,0.051 -0.821,-0.257c-0.564,-0.923 -1.691,-0.564 -1.435,0.462c0.205,0.82 0.051,0.974 -0.82,0.717c-0.616,-0.153 -1.282,-0.974 -1.641,-2.153c-0.307,-1.025 -1.589,-3.024 -2.82,-4.511c-1.743,-2 -2.255,-3.025 -2.255,-4.409c-0,-1.128 0.307,-1.897 0.769,-2.102c0.41,-0.154 0.769,-0.769 0.769,-1.384c-0,-0.872 0.205,-1.025 1.179,-0.718c0.615,0.154 1.999,0.564 3.076,0.82c1.845,0.462 3.947,2.051 3.947,2.974c0,0.564 1.282,1.076 2.615,1.076c2.204,0 3.435,6.357 1.999,10.356c-0.564,1.538 -0.564,1.999 -0.051,2.666c0.41,0.461 1.025,0.82 1.435,0.82c0.411,0 1.333,1.333 2,2.922c1.128,2.512 1.281,3.589 1.128,6.87c-0.154,3.332 -0.462,4.46 -2.307,8.202c-1.179,2.359 -2.512,4.768 -2.923,5.332c-0.768,0.974 -0.768,0.923 -0.871,-1.282Z" style="fill:#c3772f;fill-rule:nonzero;"/><path d="M334.576,156.251c-0.307,-0.564 -0.41,-1.59 -0.205,-2.205c0.205,-0.615 0.41,-2.563 0.462,-4.357c0.102,-2.513 0.358,-3.487 1.23,-4.409c0.769,-0.821 1.076,-1.59 0.871,-2.205c-0.205,-0.615 0.103,-1.384 0.718,-2.102c0.615,-0.615 0.923,-1.384 0.769,-1.64c-0.154,-0.308 -0.051,-0.513 0.256,-0.513c0.308,0 0.052,-0.923 -0.563,-2.102c-0.923,-1.845 -1.026,-2.666 -0.718,-5.639l0.359,-3.537l1.64,-0c0.872,-0 2.051,0.153 2.615,0.307c2.255,0.615 3.793,6.972 2.05,8.408c-0.41,0.359 -0.769,1.282 -0.769,2.102c0,1.128 -0.256,1.486 -1.025,1.486c-1.077,0 -1.384,0.769 -0.513,1.282c0.667,0.41 0.667,4.204 0.052,4.614c-0.257,0.154 -0.359,1.487 -0.205,3.025c0.256,2.614 0.205,2.768 -1.231,3.64c-1.025,0.615 -1.692,1.538 -1.999,2.768c-0.359,1.487 -0.718,1.897 -1.846,1.999c-0.974,0.103 -1.538,-0.153 -1.948,-0.922Z" style="fill:#c3772f;fill-rule:nonzero;"/><path d="M372.205,148.151c-0.307,-0.206 -0.717,-0.923 -0.871,-1.641c-0.923,-3.845 -2.051,-7.485 -2.512,-8.049c-0.308,-0.359 -0.667,-2.153 -0.821,-3.998c-0.205,-2.615 -0.102,-3.333 0.462,-3.333c0.41,0 1.025,0.718 1.384,1.538c0.41,0.872 0.923,1.436 1.179,1.231c0.256,-0.154 0.615,0.153 0.82,0.666c0.205,0.513 0.564,1.077 0.821,1.282c0.307,0.154 0.564,1.179 0.615,2.307c0.102,1.333 0.41,1.999 0.974,2.102c0.666,0.153 0.82,0.666 0.615,2.563c-0.102,1.333 -0.256,3.178 -0.256,4.101c-0.051,1.641 -1.026,2.153 -2.41,1.231Z" style="fill:#c3772f;fill-rule:nonzero;"/><path d="M366.207,108.42c-1.025,-0.769 -2.461,-1.231 -4.614,-1.385c-2.512,-0.205 -3.229,-0.461 -3.332,-1.127c-0.103,-0.564 0.154,-0.923 0.615,-0.923c0.41,-0 1.025,-0.462 1.333,-1.026c0.308,-0.564 0.359,-1.025 0.154,-1.025c-0.205,0 -0.103,-0.256 0.205,-0.564c0.308,-0.307 0.461,-0.923 0.308,-1.281c-0.154,-0.411 0.051,-0.718 0.512,-0.718c0.513,-0 0.667,0.41 0.462,1.281c-0.154,0.923 -0,1.282 0.615,1.282c0.461,0 0.974,-0.41 1.128,-0.871c0.153,-0.513 0.564,-1.487 0.871,-2.154c0.462,-0.974 0.41,-1.281 -0.307,-1.794c-1.128,-0.871 -0.564,-1.333 1.691,-1.333c2.41,0 3.076,0.769 3.076,3.435c0,1.23 0.205,2.204 0.462,2.204c0.256,0 0.615,0.718 0.82,1.538c0.205,0.872 0.564,1.538 0.82,1.538c0.256,0 0.462,0.923 0.462,2.051c-0,2.051 -0,2.051 -1.897,1.999c-1.179,0 -2.512,-0.461 -3.384,-1.127Z" style="fill:#c3772f;fill-rule:nonzero;"/><path d="M333.91,106.42c-0.154,-1.23 -0.103,-3.025 0.154,-3.999c0.256,-0.974 0.615,-2.665 0.769,-3.691c0.307,-2.102 0.922,-2.358 2.563,-1.128c0.769,0.564 1.025,1.487 1.179,4.204c0.205,3.333 0.154,3.538 -1.128,4.358c-0.718,0.513 -1.333,1.23 -1.333,1.64c0,0.41 -0.41,0.769 -0.974,0.769c-0.718,0 -1.025,-0.512 -1.23,-2.153Z" style="fill:#c3772f;fill-rule:nonzero;"/><path d="M350.315,104.113c-0.205,-0.154 -0.359,-1.076 -0.359,-2.05c-0,-1.333 0.205,-1.692 1.025,-1.692c1.436,-0 1.282,-0.615 -0.512,-2.563c-1.026,-1.077 -1.538,-2.205 -1.538,-3.179l-0,-1.538l2.46,0.359c5.588,0.82 7.331,1.333 7.178,2.204c-0.103,0.513 -0.667,0.923 -1.333,1.026c-1.179,0.205 -1.487,0.82 -0.616,1.384c0.308,0.154 0.513,1.128 0.513,2.102c0,1.025 -0.205,1.692 -0.513,1.486c-0.256,-0.153 -1.127,0.052 -1.896,0.462c-1.231,0.615 -1.333,0.769 -0.513,1.076c0.461,0.205 0.871,0.564 0.871,0.821c0,0.512 -4.255,0.615 -4.767,0.102Z" style="fill:#c3772f;fill-rule:nonzero;"/></g><g><path d="M285.874,167.273c-0,-0.872 0.461,-1.282 2.204,-1.795c1.179,-0.358 3.948,-1.538 6.101,-2.614c2.204,-1.128 4.665,-2 5.536,-2c1.538,0 1.538,0 0.769,1.231c-1.179,1.743 -8.664,5.485 -11.893,5.895c-2.564,0.359 -2.717,0.308 -2.717,-0.717Z" style="fill:#7d766a;fill-rule:nonzero;"/><path d="M310.481,149.432c0,-0.923 0.513,-2.204 1.077,-2.922c1.897,-2.409 5.537,-8.049 7.075,-11.073c3.075,-6.101 3.793,-9.126 4.05,-16.764c0.153,-5.434 0.358,-7.024 0.922,-7.024c1.026,0 1.333,2.871 1.128,10.1c-0.256,6.869 -0.974,10.048 -3.845,15.687c-2.461,4.922 -7.28,11.894 -8.869,12.765l-1.538,0.872l0,-1.641Z" style="fill:#7d766a;fill-rule:nonzero;"/></g><g><path d="M343.445,155.02c-0.205,-0.41 -1.076,-0.82 -1.948,-0.923c-1.025,-0.102 -1.743,-0.615 -2.307,-1.538c-0.718,-1.281 -0.666,-1.435 0.256,-2.153c0.821,-0.615 0.923,-0.871 0.411,-1.384c-0.872,-0.871 -0.821,-2.461 0.102,-4.255c0.41,-0.769 0.615,-1.641 0.461,-1.897c-0.153,-0.256 0.308,-0.461 0.975,-0.461c1.025,-0 1.691,0.717 3.383,3.486c1.179,1.948 2.717,4.05 3.384,4.716c0.922,0.872 1.281,1.743 1.281,3.025c-0.051,1.64 -0.102,1.743 -0.717,0.974c-0.872,-1.179 -1.692,-1.179 -2.359,0.103c-0.615,1.179 -2.307,1.384 -2.922,0.307Z" style="fill:#ab723f;fill-rule:nonzero;"/><path d="M376.101,125.03c0,-0.257 -0.82,-0.974 -1.845,-1.641c-2.461,-1.64 -3.794,-4.768 -3.794,-8.971c0,-3.076 -0.102,-3.333 -1.281,-3.794c-0.718,-0.256 -1.282,-0.82 -1.282,-1.23c-0,-0.411 -0.359,-1.128 -0.82,-1.538c-1.333,-1.385 -0.564,-2 0.974,-0.821c0.82,0.616 1.589,0.974 1.794,0.769c0.205,-0.205 0.051,-0.512 -0.256,-0.615c-0.359,-0.154 -0.667,-0.564 -0.667,-0.974c0,-0.461 -0.256,-0.615 -0.615,-0.41c-0.41,0.256 -0.461,-0 -0.308,-0.718c0.206,-0.615 0.154,-1.128 0,-1.128c-0.205,0 -0.666,-0.615 -0.974,-1.384c-0.512,-0.974 -0.512,-1.538 -0.051,-2.05c0.41,-0.513 0.308,-0.923 -0.41,-1.795l-0.974,-1.076l3.281,0.359c1.794,0.153 3.999,0.307 4.922,0.307l1.64,0l0.666,3.896c0.513,3.025 0.564,4.153 0.103,4.871c-0.359,0.512 -0.615,1.333 -0.615,1.743c-0,0.41 -0.154,0.769 -0.359,0.769c-0.256,-0 -0.718,0.205 -1.128,0.461c-0.564,0.359 -0.513,0.718 0.256,2.153c0.564,0.974 1.128,1.846 1.385,1.897c0.205,0.103 0.358,0.615 0.358,1.128c0,0.513 0.513,1.384 1.18,1.897c0.666,0.512 1.332,1.281 1.486,1.794c0.205,0.461 1.179,1.128 2.153,1.487c2.102,0.769 2.461,1.486 0.564,1.076c-1.025,-0.153 -1.281,0 -1.281,0.872c-0,0.615 -0.359,1.23 -0.821,1.435c-0.41,0.154 -0.666,0.615 -0.512,0.974c0.205,0.513 -0.154,0.718 -1.231,0.718c-0.871,0 -1.538,-0.205 -1.538,-0.461Z" style="fill:#ab723f;fill-rule:nonzero;"/><path d="M318.889,60.794c-0,-1.795 -0.513,-6.357 -1.128,-10.151c-0.615,-3.794 -1.128,-7.792 -1.128,-8.869c0,-1.743 0.154,-1.948 1.128,-1.794c1.077,0.153 1.179,0.564 1.743,6.049c0.308,3.23 0.974,7.844 1.487,10.202c1.025,5.178 0.717,7.741 -0.923,7.741c-1.025,0 -1.128,-0.256 -1.179,-3.178Z" style="fill:#ab723f;fill-rule:nonzero;"/></g><g><path d="M365.9,160.506c-2.41,-0.308 -4.153,-1.59 -4.153,-3.025c0,-0.667 -0.205,-1.23 -0.513,-1.23c-0.256,-0 -0.615,-0.564 -0.82,-1.282c-0.154,-0.718 -0.513,-1.282 -0.769,-1.282c-0.82,0 -0.564,-4.973 0.308,-5.331c0.41,-0.154 0.769,-0.616 0.769,-1.077c-0,-1.333 3.332,-1.025 3.947,0.359c0.41,0.974 0.82,1.128 3.076,0.974c2.563,-0.103 2.615,-0.103 4.46,2.409c1.128,1.59 1.846,3.128 1.846,4.05c-0,1.846 -0.974,4.871 -1.743,5.383c-0.564,0.41 -3.332,0.41 -6.408,0.052Zm2.204,-0.974c0.615,-0.206 0.666,-0.564 0.308,-1.231c-0.257,-0.461 -0.359,-1.025 -0.205,-1.179c0.307,-0.308 -0.923,-2.409 -1.385,-2.409c-0.666,-0 -1.025,3.639 -0.41,4.408c0.667,0.821 0.615,0.821 1.692,0.411Z" style="fill:#cf6e0c;fill-rule:nonzero;"/><path d="M377.229,159.89c-0.359,-0.205 -0.82,-1.743 -0.974,-3.434c-0.256,-2.666 -0.205,-2.923 0.462,-2.102c1.025,1.333 3.127,0.41 4.203,-1.897c0.462,-1.025 1.026,-1.846 1.231,-1.846c0.205,0 0.615,-0.564 0.974,-1.281c0.307,-0.718 0.359,-1.282 0.102,-1.282c-0.256,0 -0.461,-0.615 -0.461,-1.384c0.051,-0.82 -0.205,-2.563 -0.513,-3.999c-0.307,-1.384 -0.666,-4.101 -0.82,-5.998l-0.307,-3.486l1.589,-0c1.794,-0 1.897,0.205 2.614,6.408c0.513,4.665 0.257,9.279 -0.564,9.792c-0.256,0.154 -0.461,1.025 -0.461,1.897c0,0.974 -0.769,2.768 -1.794,4.46c-0.974,1.538 -1.795,3.178 -1.795,3.691c0,0.666 -0.41,0.923 -1.384,0.923c-0.82,-0 -1.743,-0.205 -2.102,-0.462Z" style="fill:#cf6e0c;fill-rule:nonzero;"/><path d="M336.934,136.359c-1.948,-3.742 -2.614,-11.022 -1.127,-11.996c0.307,-0.205 0.615,-1.999 0.615,-4.101c0.154,-8.203 -0,-7.587 1.999,-7.587c0.974,-0 1.794,0.205 1.794,0.461c0,0.256 0.462,0.666 1.077,0.82c0.872,0.308 1.025,0.718 0.974,3.23c-0.051,1.64 0.205,4.358 0.564,6.101c0.513,2.614 0.513,3.588 -0.051,5.383c-0.359,1.23 -0.769,1.948 -0.872,1.589c-0.102,-0.359 -0.564,-0.462 -0.974,-0.308c-0.41,0.154 -0.718,0 -0.718,-0.307c0,-0.308 -0.205,-0.564 -0.461,-0.564c-0.769,-0 -0.974,4.255 -0.205,5.741c1.025,2.102 0.871,2.974 -0.615,2.974c-0.872,-0 -1.487,-0.462 -2,-1.436Z" style="fill:#cf6e0c;fill-rule:nonzero;"/><path d="M367.13,133.694c-0.154,-0.257 -0.41,-1.59 -0.564,-2.923c-0.359,-2.768 0.41,-5.28 1.589,-5.28c0.615,0 0.718,-0.513 0.41,-3.076l-0.307,-3.076l2.204,0c1.795,0 2.41,0.308 3.794,1.743c0.871,0.974 2.666,2.922 4.05,4.358c1.999,2.102 2.409,2.922 2.409,4.46c0,1.845 0,1.897 -1.025,0.974c-0.769,-0.666 -1.179,-0.769 -1.692,-0.359c-0.564,0.461 -1.025,0.205 -2.204,-1.128c-0.82,-0.923 -2.051,-1.999 -2.717,-2.307c-1.026,-0.564 -1.282,-0.512 -2,0.308c-1.025,1.128 -1.23,1.794 -1.538,4.665c-0.153,1.692 -0.41,2.153 -1.127,2.153c-0.564,0 -1.128,-0.205 -1.282,-0.512Z" style="fill:#cf6e0c;fill-rule:nonzero;"/></g><g><path d="M273.877,165.889c1.077,-3.538 2.871,-6.152 4.717,-6.87c1.025,-0.41 2.409,-1.025 3.025,-1.333c0.564,-0.308 1.333,-0.359 1.691,-0.154c0.359,0.205 1.282,-0.256 2.205,-1.179c0.923,-0.82 2.255,-1.846 2.973,-2.204c2.769,-1.436 6.46,-4.204 7.382,-5.537c0.513,-0.718 1.949,-2.205 3.23,-3.281c2.461,-2.102 4.717,-5.075 4.717,-6.306c-0,-1.025 2.153,-4.255 3.076,-4.562c0.41,-0.154 1.23,-0.872 1.743,-1.641c1.179,-1.589 0.717,-2.614 -1.59,-3.691c-2.153,-0.974 -3.076,-2.973 -1.845,-3.948c0.513,-0.358 1.23,-0.717 1.589,-0.717c0.308,-0 0.615,-0.564 0.615,-1.282c0,-0.718 0.205,-1.282 0.462,-1.282c0.922,0 5.024,-4.408 5.383,-5.793c0.153,-0.769 0.666,-1.384 1.076,-1.384c0.82,0 1.948,-2.307 2.461,-5.075c0.461,-2.153 1.23,-3.127 2.461,-3.127c0.564,-0 1.128,-0.667 1.538,-1.795c1.076,-2.922 1.897,-2.204 2.255,2c0.41,4.255 0.205,4.921 -1.538,4.921c-1.127,0 -1.23,0.257 -1.538,3.486c-0.307,3.435 -1.589,7.28 -2.358,7.28c-0.256,0 -0.564,1.179 -0.769,2.666c-0.256,1.64 -0.769,3.076 -1.435,3.691c-1.231,1.23 -2.615,3.999 -3.076,6.101c-0.205,0.769 -0.718,1.589 -1.231,1.743c-1.025,0.41 -4.203,3.537 -4.203,4.152c-0,0.257 -0.564,0.974 -1.282,1.641c-1.128,1.076 -2.666,3.845 -3.537,6.305c-0.41,1.231 -3.384,2.41 -6.204,2.41c-2.05,-0 -2.306,0.102 -2.306,1.179c-0,0.615 -0.257,1.999 -0.564,3.025c-0.411,1.64 -0.872,2.102 -3.025,3.024c-1.436,0.616 -2.563,1.282 -2.563,1.487c-0,0.205 -1.282,0.513 -2.871,0.615c-2,0.154 -3.025,0.513 -3.384,1.128c-0.256,0.462 -0.82,1.128 -1.23,1.487c-0.41,0.307 -1.487,1.384 -2.358,2.307c-1.948,1.999 -4.255,2.307 -3.692,0.513Z" style="fill:#8e595b;fill-rule:nonzero;"/></g><g><path d="M364.567,172.912c-2.153,-0.564 -2.41,-0.718 -1.385,-1.025c0.616,-0.205 1.128,-0.564 1.128,-0.821c0,-0.205 0.718,-0.307 1.538,-0.205c1.077,0.103 1.538,-0.051 1.538,-0.564c0,-1.127 0.769,-0.871 1.538,0.564c0.359,0.667 0.923,1.179 1.231,1.128c0.307,-0.051 0.564,0.256 0.564,0.667c-0,1.025 -2.82,1.127 -6.152,0.256Z" style="fill:#b36725;fill-rule:nonzero;"/><path d="M350.058,168.964c-1.179,-0.563 -2.922,-1.948 -3.896,-3.024c-0.923,-1.128 -1.948,-2 -2.255,-2c-0.769,0 -1.333,-3.127 -0.872,-5.075c0.461,-2.051 2.102,-2.153 2.871,-0.154c0.308,0.769 0.769,1.795 1.025,2.256c0.257,0.513 0.462,1.333 0.462,1.897c-0,0.923 1.076,1.64 2.255,1.538c0.257,-0 0.616,0.154 0.769,0.41c0.564,0.769 3.486,2.204 3.845,1.845c0.513,-0.512 0.359,1.385 -0.205,2.461c-0.666,1.231 -1.23,1.179 -3.999,-0.154Z" style="fill:#b36725;fill-rule:nonzero;"/><path d="M335.294,157.532c-0.461,-0.718 -0.667,-1.64 -0.513,-2.153c0.308,-0.769 0.41,-0.769 0.82,-0.154c0.359,0.615 0.513,0.564 0.821,-0.205c0.205,-0.513 0.359,-1.384 0.41,-1.897c0.051,-0.564 0.769,-1.486 1.64,-2.05l1.59,-0.974l0.871,1.281c0.462,0.718 1.077,1.179 1.333,1.026c0.308,-0.205 0.513,0.051 0.513,0.512c-0,0.974 -5.024,5.896 -5.998,5.896c-0.359,-0 -1.026,-0.564 -1.487,-1.282Z" style="fill:#b36725;fill-rule:nonzero;"/><path d="M351.648,153.072c-1.077,-0.513 -1.179,-0.923 -1.179,-4.204c-0,-4.204 0.769,-7.433 1.845,-7.843c0.41,-0.154 1.743,-0.103 3.025,0.051c2.256,0.359 2.307,0.41 2.307,2.358c-0,1.077 0.256,2.153 0.512,2.307c0.308,0.154 0.513,1.435 0.513,2.768c0,2 -0.256,2.666 -1.435,3.794c-1.538,1.487 -3.538,1.743 -5.588,0.769Z" style="fill:#b36725;fill-rule:nonzero;"/><path d="M394.813,151.124c0.206,-0.667 0.154,-1.025 -0.102,-0.872c-0.308,0.205 -0.461,-1.025 -0.461,-2.87c-0,-1.743 -0.103,-3.487 -0.205,-3.897c-0.359,-1.127 -2.154,-3.127 -2.82,-3.127c-0.872,0 -2.82,-2.256 -2.82,-3.281c0,-0.461 0.257,-0.718 0.513,-0.564c0.308,0.205 0.513,-0.256 0.513,-0.974c-0,-0.718 0.256,-1.333 0.564,-1.333c0.256,0 0.41,-0.205 0.256,-0.461c-0.256,-0.41 0.769,-1.077 1.589,-1.077c0.154,0 0.103,0.769 -0.051,1.692c-0.257,1.384 -0.051,2.153 1.025,3.742c2.563,3.743 3.332,6.255 3.179,10.1c-0.103,2.461 -0.359,3.691 -0.872,3.845c-0.513,0.154 -0.564,-0.103 -0.308,-0.923Z" style="fill:#b36725;fill-rule:nonzero;"/><path d="M341.241,140.204c-1.231,-1.025 -2.051,-2.768 -2.051,-4.306c0.051,-1.384 0.103,-1.333 1.128,0.615c0.615,1.179 1.179,1.743 1.333,1.384c0.102,-0.41 -0,-0.922 -0.308,-1.23c-0.359,-0.359 -0.102,-0.872 0.821,-1.692l1.332,-1.179l-0.974,-2.051c-0.615,-1.179 -1.281,-1.948 -1.64,-1.794c-0.359,0.154 -0.667,0 -0.667,-0.256c0,-0.615 3.794,-1.333 5.691,-1.025c1.179,0.153 1.23,0.307 1.384,5.588c0.154,5.382 0.103,5.434 -1.179,5.998c-1.692,0.769 -3.896,0.769 -4.87,-0.052Z" style="fill:#b36725;fill-rule:nonzero;"/><path d="M389.431,127.285c-0.359,-0.461 -0.974,-0.717 -1.333,-0.564c-0.872,0.308 -3.333,-0.82 -3.128,-1.486c0.103,-0.257 -0.717,-1.384 -1.794,-2.512l-1.999,-2l1.897,0.308c1.025,0.205 3.127,1.128 4.665,2.153c2.256,1.487 2.717,2.051 2.717,3.332c-0,1.743 -0.154,1.846 -1.025,0.769Z" style="fill:#b36725;fill-rule:nonzero;"/><path d="M337.037,110.368c0.256,-2.359 0.205,-2.512 -0.564,-1.846c-0.513,0.359 -0.872,1.179 -0.872,1.794c0,1.128 -0.871,2.359 -1.691,2.359c-0.205,-0 -0.257,-0.257 -0.052,-0.616c0.257,-0.358 0.411,-1.896 0.462,-3.383c-0,-2.41 0.205,-2.922 1.487,-3.948c1.332,-1.076 1.435,-1.384 1.127,-3.332c-0.461,-2.819 0.513,-3.845 3.333,-3.435c1.435,0.205 1.999,0.052 1.999,-0.41c0,-0.359 -0.359,-0.769 -0.769,-0.974c-0.513,-0.154 -0.769,-0.974 -0.769,-2.153l0,-1.897l1.948,0.41c1.025,0.205 3.281,0.359 4.973,0.308c1.692,-0 3.896,0.154 4.87,0.41l1.795,0.461l-1.897,0.052c-1.487,0.051 -1.846,0.205 -1.641,0.82c0.205,0.564 0.667,0.666 1.436,0.461c0.922,-0.307 0.974,-0.256 0.358,0.513c-0.615,0.718 -0.563,0.82 0.513,0.82c0.974,0 1.077,0.103 0.462,0.513c-0.667,0.41 -0.564,0.564 0.41,0.82c2.153,0.615 0.82,3.794 -1.59,3.794c-1.281,-0 -0.615,0.82 0.923,1.128c0.564,0.102 -0.718,0.41 -2.819,0.615c-2.615,0.256 -3.897,0.205 -3.999,-0.154c-0.103,-0.308 -0.769,-0.564 -1.436,-0.564c-1.025,0 -1.23,0.256 -1.23,1.538c0,0.872 -0.205,1.538 -0.513,1.538c-0.256,0 -0.512,0.359 -0.512,0.769c-0,0.513 -0.513,0.769 -1.538,0.769c-1.282,0 -1.538,0.205 -1.846,1.794c-0.205,1.282 -0.615,1.795 -1.23,1.795c-0.513,-0 -1.026,0.41 -1.179,0.922c-0.103,0.462 -0.052,-0.256 0.051,-1.691Z" style="fill:#b36725;fill-rule:nonzero;"/><path d="M375.486,107.702c-2.102,-0.257 -2.973,-1.436 -1.333,-1.846c0.718,-0.205 0.872,-0.512 0.616,-0.974c-0.257,-0.359 -0.359,-1.076 -0.257,-1.589c0.103,-0.769 -0.102,-0.872 -0.923,-0.615c-1.281,0.41 -1.384,-0.154 -0.205,-1.795c0.923,-1.332 1.077,-1.281 -1.64,-0.205c-0.41,0.154 -0.769,0.103 -0.769,-0.153c-0,-0.257 -0.41,-0.462 -0.872,-0.513c-0.512,-0.051 -1.589,-0.359 -2.46,-0.718c-0.821,-0.359 -1.743,-0.717 -2.051,-0.769c-0.256,0 -1.333,-0.359 -2.307,-0.769c-0.974,-0.359 -1.999,-0.615 -2.204,-0.564c-0.257,0.052 -0.359,-0.256 -0.257,-0.769c0.154,-0.769 0.667,-0.922 3.743,-0.82c4.614,0.103 10.919,0.872 12.611,1.589c2.461,0.974 4.563,3.179 4.563,4.717c-0,0.82 0.205,1.589 0.461,1.743c0.667,0.41 0.051,2.461 -1.025,3.537c-0.923,0.82 -1.692,0.923 -5.691,0.513Z" style="fill:#b36725;fill-rule:nonzero;"/></g><g><path d="M390.456,162.095c-0,-1.077 1.128,-3.794 1.64,-3.794c0.257,0 0.411,-0.307 0.257,-0.615c-0.103,-0.359 -0,-1.077 0.256,-1.589c0.256,-0.513 0.564,-1.333 0.667,-1.795c0.051,-0.512 0.666,-1.794 1.332,-2.922c1.59,-2.666 1.846,-1.281 0.462,2.359c-1.128,3.024 -4.563,9.279 -4.614,8.356Z" style="fill:#a16330;fill-rule:nonzero;"/><path d="M340.523,159.224c-0.461,-0.615 -0.82,-1.641 -0.82,-2.204c-0,-0.616 -0.308,-1.385 -0.615,-1.692c-0.923,-0.923 1.948,-3.127 3.793,-2.922c2.153,0.307 3.538,1.948 3.025,3.691c-0.205,0.769 -0.308,1.743 -0.205,2.102c0.154,0.307 -0,0.615 -0.308,0.615c-0.307,-0 -0.512,0.307 -0.41,0.666c0.051,0.359 -0.615,0.667 -1.794,0.769c-1.436,0.103 -2.051,-0.102 -2.666,-1.025Z" style="fill:#a16330;fill-rule:nonzero;"/><path d="M390.558,134.463c-0.307,-0.718 -0.41,-1.282 -0.153,-1.282c0.871,-0 0.102,-3.64 -1.436,-6.767c-0.871,-1.743 -1.589,-3.23 -1.589,-3.332c-0,-0.667 3.23,2.255 3.896,3.486c0.872,1.743 1.128,7.023 0.359,8.356c-0.41,0.769 -0.564,0.718 -1.077,-0.461Z" style="fill:#a16330;fill-rule:nonzero;"/><path d="M352.058,130.874c-0.667,-0.718 -1.384,-1.282 -1.641,-1.282c-0.256,0 -0.461,-0.666 -0.461,-1.486c-0,-0.872 -0.205,-1.692 -0.513,-1.846c-0.666,-0.41 -0.666,-3.64 0,-4.921c0.41,-0.667 1.077,-0.975 2.41,-0.975c1.999,0 3.178,1.077 3.229,2.871c0,0.564 0.359,1.487 0.769,2.051c0.462,0.564 0.718,2.153 0.769,3.947l0,2.923l-1.64,-0c-1.128,-0 -2.102,-0.462 -2.922,-1.282Z" style="fill:#a16330;fill-rule:nonzero;"/><path d="M374.358,116.52c0.206,-0.411 0.103,-0.769 -0.102,-0.769c-0.256,-0 -0.82,-0.769 -1.23,-1.641l-0.769,-1.692l-0.257,1.641c-0.205,1.384 -0.359,1.538 -1.025,1.025c-0.872,-0.666 -2.051,-4.101 -2.051,-5.895c0,-0.975 0.103,-1.026 1.333,-0.359c1.179,0.615 1.487,0.564 2.102,-0.052c0.41,-0.41 1.025,-0.717 1.333,-0.717c0.359,-0 0.154,-0.359 -0.359,-0.769c-0.974,-0.718 -0.923,-0.769 0.256,-1.231c0.667,-0.256 1.436,-0.359 1.641,-0.205c0.205,0.154 0.718,0 1.077,-0.307c0.461,-0.41 0.922,-0.359 1.589,0.153c0.82,0.564 1.076,0.564 1.692,-0.051c1.127,-1.076 1.281,-0.512 0.871,2.922c-0.256,2.256 -0.615,3.23 -1.23,3.435c-3.486,1.077 -3.64,1.231 -3.64,3.281c-0,1.436 -0.205,2 -0.769,2c-0.462,-0 -0.615,-0.308 -0.462,-0.769Z" style="fill:#a16330;fill-rule:nonzero;"/><path d="M374.564,102.934c-0,-0.359 -0.411,-0.461 -1.026,-0.256c-1.23,0.41 -1.281,-0.154 -0.205,-1.692c0.41,-0.615 0.615,-1.128 0.41,-1.128c-0.154,0 -0.051,-0.359 0.308,-0.769c0.974,-1.179 0.051,-1.845 -2.461,-1.692c-1.589,0.103 -2.409,-0.051 -2.563,-0.564c-0.205,-0.563 0.461,-0.615 3.281,-0.461c4.05,0.308 6.972,1.23 5.895,1.948c-0.41,0.205 -0.717,1.128 -0.666,2c-0,1.025 -0.205,1.589 -0.667,1.589c-0.358,-0 -1.076,0.359 -1.486,0.82c-0.513,0.461 -0.82,0.564 -0.82,0.205Z" style="fill:#a16330;fill-rule:nonzero;"/><path d="M334.422,89.605c-0.82,-0.974 -0.922,-1.025 -2.204,-0.205l-1.333,0.871l0.205,-1.743c0.154,-1.691 0.205,-1.743 2.615,-1.896l2.409,-0.154l0,2.05c0,2.359 -0.359,2.564 -1.692,1.077Z" style="fill:#a16330;fill-rule:nonzero;"/></g><g><path d="M374.153,164.402c-0.615,-0.257 -1.281,-0.769 -1.435,-1.231c-0.256,-0.615 -0.923,-0.717 -3.742,-0.461c-5.332,0.513 -10.202,-0.769 -15.226,-3.999c-3.076,-1.948 -4.307,-3.947 -4.307,-6.767l0,-2.358l1.948,0.051c1.026,0 1.59,0.154 1.282,0.308c-1.025,0.359 -0.769,0.974 0.564,1.589c1.025,0.461 1.384,0.359 2.563,-0.871c0.769,-0.821 1.333,-1.641 1.282,-1.897c-0.051,-0.257 0.051,-0.872 0.256,-1.333c0.205,-0.462 0.154,-1.282 -0.154,-1.897c-0.307,-0.564 -0.564,-1.692 -0.564,-2.563c0,-1.231 -0.205,-1.59 -0.974,-1.59c-1.64,0 -2.614,-1.435 -2.614,-3.793c-0,-2.871 0.974,-4.922 2.358,-4.922c2.461,0 4.306,0.667 4.614,1.692c0.205,0.615 1.435,2.615 2.82,4.511c1.845,2.564 2.512,3.897 2.512,5.23c-0,1.538 -0.205,1.794 -1.538,2.101c-1.384,0.257 -2.205,1.333 -1.026,1.333c0.308,0 0.513,0.41 0.513,0.923c0,0.718 -0.103,0.769 -0.513,0.103c-0.41,-0.667 -0.512,-0.616 -0.512,0.153c-0,0.513 -0.359,1.026 -0.769,1.18c-0.821,0.307 -1.077,2.255 -0.308,2.255c0.256,0 0.615,0.564 0.769,1.282c0.205,0.718 0.564,1.179 0.82,1.025c0.308,-0.205 0.513,0.359 0.513,1.179c0,1.179 0.41,1.795 1.999,2.82c1.641,1.128 2.256,1.23 3.845,0.871c1.077,-0.205 2,-0.512 2.051,-0.615c0.564,-0.615 1.23,-3.64 1.025,-4.255c-0.205,-0.41 -0.051,-0.769 0.257,-0.769c0.307,0 0.564,-0.82 0.564,-1.794c-0,-1.589 0.153,-1.794 1.332,-1.794c1.128,-0 1.282,0.205 1.077,1.076c-0.205,0.718 0.205,1.795 1.23,3.179c0.821,1.128 1.487,2.46 1.487,2.922c0,0.513 0.359,1.076 0.82,1.23c1.128,0.462 1.231,0.41 1.282,-0.564c0.051,-0.512 0.256,0.462 0.513,2.153c0.256,1.692 0.359,3.384 0.205,3.743c-0.308,0.769 -2.41,0.82 -3.23,-0c-0.461,-0.462 -0.82,-0.41 -1.487,0.205c-0.666,0.564 -1.281,0.666 -2.102,0.359Z" style="fill:#bd6209;fill-rule:nonzero;"/><path d="M340.626,143.332c-1.231,-1.846 -3.999,-7.485 -3.999,-8.1c-0,-0.308 0.359,-0.206 0.82,0.205c1.128,1.127 1.384,1.025 1.128,-0.462c-0.41,-1.948 0.359,-1.538 1.384,0.769c0.974,2.205 3.281,3.743 4.409,3.025c1.333,-0.82 1.538,-0.461 1.384,2.512l-0.154,2.922l-2.102,0.154c-1.743,0.102 -2.255,-0.051 -2.87,-1.025Z" style="fill:#bd6209;fill-rule:nonzero;"/><path d="M345.65,130.874c-0.205,-0.615 -0.718,-0.718 -2.102,-0.461c-1.128,0.205 -1.795,0.102 -1.795,-0.257c0,-0.307 -0.358,-0.41 -0.769,-0.256c-0.922,0.359 -0.974,0.256 -0.051,-1.948c0.769,-1.794 0.462,-4.922 -0.718,-7.075c-0.307,-0.564 -0.256,-1.64 0.052,-2.871c0.41,-1.435 0.41,-1.999 -0,-2.153c-0.308,-0.102 -0.923,-0.564 -1.333,-0.974c-0.615,-0.615 -0.974,-0.666 -1.538,-0.154c-0.667,0.564 -0.769,0.359 -0.769,-1.025c-0,-2.102 1.487,-7.331 2.256,-7.792c0.307,-0.206 0.974,-0.257 1.486,-0.103c0.564,0.154 0.872,-0 0.872,-0.513c-0,-0.461 0.205,-0.82 0.512,-0.82c0.769,0 1.18,2.41 0.821,5.178l-0.359,2.512l4.665,-0l-0,1.897c-0,1.025 0.256,4.409 0.615,7.536c0.513,4.409 0.513,5.639 0,5.844c-0.359,0.103 -0.615,1.077 -0.615,2.205c-0,1.999 -0.666,2.665 -1.23,1.23Z" style="fill:#bd6209;fill-rule:nonzero;"/><path d="M367.95,126.004c-0.051,-1.59 -0.359,-3.333 -0.769,-3.896c-0.41,-0.564 -0.974,-1.949 -1.281,-3.076c-0.872,-3.333 -2.256,-4.717 -4.819,-4.922l-2.154,-0.154l0,-2.204c0,-2 -0.102,-2.153 -1.384,-2.153c-0.769,-0 -1.486,-0.205 -1.64,-0.462c-0.154,-0.256 -0.821,-0.564 -1.436,-0.717c-0.666,-0.103 -1.589,-0.411 -2.05,-0.616c-0.667,-0.256 -0.923,-0.153 -0.923,0.462c-0,0.615 -0.462,0.82 -1.743,0.82c-1.538,-0 -1.794,-0.205 -2.563,-2.204c-0.923,-2.512 -1.077,-5.793 -0.257,-6.255c0.308,-0.205 0.667,0.103 0.82,0.718c0.206,0.82 0.462,0.974 0.975,0.513c0.461,-0.411 1.127,-0.359 2.358,0.205c5.998,2.614 8.92,3.434 12.304,3.434c1.794,0 2.768,0.308 3.896,1.282c1.538,1.282 3.178,5.229 3.178,7.639c0,0.717 0.308,1.486 0.667,1.691c0.359,0.205 1.076,1.282 1.64,2.41c0.564,1.076 1.333,2.051 1.692,2.204c0.871,0.359 0.82,2.717 -0.103,2.717c-0.358,0 -1.025,-0.461 -1.384,-0.974c-0.41,-0.564 -1.281,-1.127 -1.948,-1.333c-1.025,-0.307 -1.179,-0.205 -0.871,0.513c0.153,0.462 0.461,1.743 0.615,2.871c0.307,1.794 0.205,2.051 -0.974,2.461c-0.718,0.256 -1.384,0.82 -1.538,1.179c-0.154,0.359 -0.308,-0.615 -0.308,-2.153Z" style="fill:#bd6209;fill-rule:nonzero;"/></g><g><path d="M367.694,173.271c-0.41,-0.667 0.256,-1.077 1.999,-1.231c0.769,-0.102 1.538,-0.41 1.641,-0.769c0.154,-0.358 0.461,-0.512 0.717,-0.358c0.308,0.153 1.026,-0.052 1.692,-0.462c0.872,-0.615 1.846,-0.718 3.691,-0.461l2.512,0.359l-3.845,1.384c-4.665,1.692 -7.946,2.256 -8.407,1.538Z" style="fill:#9a561f;fill-rule:nonzero;"/><path d="M340.984,162.966c-0.82,-0.512 -2.409,-1.948 -3.486,-3.076l-1.948,-2.101l1.897,-2.051c2.102,-2.256 2.563,-2.41 3.999,-1.282c0.718,0.564 0.82,0.923 0.41,1.436c-0.769,0.922 0.564,2.922 1.948,2.922c1.128,-0 1.794,0.82 1.077,1.281c-0.359,0.206 -0.359,0.769 -0.052,1.59c0.308,0.717 0.513,1.538 0.513,1.794c-0,0.82 -2.768,0.513 -4.358,-0.513Z" style="fill:#9a561f;fill-rule:nonzero;"/><path d="M341.497,144.664c-2.82,-4.357 -3.076,-5.177 -2.307,-6.1c0.615,-0.769 0.718,-0.769 1.179,0.051c0.308,0.564 0.308,0.974 -0.051,1.179c-0.359,0.205 0.154,0.923 1.23,1.743c1.795,1.436 2.769,1.436 2.769,0.052c-0,-0.513 0.41,-0.718 1.179,-0.616c0.974,0.154 1.128,0.513 1.281,3.128c0.103,2.101 -0.051,2.922 -0.512,2.922c-0.359,-0 -1.179,0.153 -1.795,0.307c-0.922,0.257 -1.435,-0.205 -2.973,-2.666Z" style="fill:#9a561f;fill-rule:nonzero;"/><path d="M366.874,136.513c-0.257,-0.718 -0.667,-1.897 -0.821,-2.614c-0.153,-0.667 -0.512,-1.385 -0.769,-1.538c-0.512,-0.308 -0.615,-3.486 -0.153,-5.178c0.256,-0.923 0.666,-1.179 2.101,-1.179c1.744,-0 1.795,0.051 1.385,1.435c-0.462,1.743 -0.359,4.153 0.256,4.922c0.256,0.307 0.615,1.384 0.82,2.358c0.205,0.974 0.615,2.102 0.872,2.461c0.41,0.461 0.102,0.615 -1.333,0.615c-1.538,-0 -1.948,-0.256 -2.358,-1.282Z" style="fill:#9a561f;fill-rule:nonzero;"/><path d="M348.264,124.056c-0.666,-0.718 -0.871,-1.948 -0.871,-4.871l-0,-3.947l2.05,-0c2.615,-0 3.691,1.538 3.948,5.537c0.205,2.768 0.154,2.87 -0.615,1.896c-0.821,-1.025 -0.821,-1.025 -1.59,0c-0.41,0.564 -0.615,1.282 -0.512,1.641c0.41,1.025 -1.487,0.82 -2.41,-0.256Z" style="fill:#9a561f;fill-rule:nonzero;"/><path d="M375.025,118.006c-0.359,-0.461 -0.667,-1.179 -0.718,-1.64c-0.051,-0.513 -0.256,-1.743 -0.461,-2.769c-0.308,-1.64 -0.205,-1.948 0.512,-1.948c0.513,0 0.718,-0.256 0.564,-0.769c-0.205,-0.41 -0.102,-0.871 0.154,-1.025c0.308,-0.205 0.513,-0 0.513,0.461c-0,0.564 0.359,0.616 1.435,0.359c1.179,-0.359 1.384,-0.615 1.231,-1.999c-0.052,-0.923 0.102,-1.641 0.41,-1.641c0.256,0 0.512,-0.307 0.512,-0.717c0,-0.41 0.359,-0.821 0.769,-1.026c0.411,-0.153 0.769,-0.769 0.769,-1.384c0,-0.564 0.257,-0.974 0.616,-0.871c1.076,0.358 2.614,2.819 2.614,4.255c0,1.589 -4.101,7.792 -5.383,8.253c-0.615,0.154 -0.923,0.821 -0.923,1.795c0,1.128 -0.256,1.486 -0.974,1.486c-0.512,0 -1.23,-0.358 -1.64,-0.82Z" style="fill:#9a561f;fill-rule:nonzero;"/><path d="M342.881,110.624c-1.897,-2.204 -2.461,-5.332 -1.128,-6.152c0.564,-0.359 0.616,-0.718 0.103,-1.794c-0.872,-1.846 -0.769,-2.051 0.666,-2.717c0.974,-0.462 1.179,-0.462 0.974,0.102c-0.153,0.41 -0.051,0.872 0.205,1.026c0.718,0.41 2.205,-0.206 1.846,-0.769c-0.41,-0.667 1.025,-0.564 1.743,0.153c0.359,0.359 0.615,1.077 0.615,1.641c0,0.564 0.41,2.05 0.872,3.332c0.718,1.846 0.923,2.051 1.23,1.282c0.205,-0.564 0.257,0.41 0.103,2.102c-0.154,1.691 -0.359,3.178 -0.462,3.281c-0.102,0.102 -1.281,0.256 -2.614,0.359c-2.307,0.205 -2.564,0.051 -4.153,-1.846Z" style="fill:#9a561f;fill-rule:nonzero;"/></g><g><path d="M381.741,169.323c-0.359,-0.41 -0.513,-0.769 -0.308,-0.769c0.359,0 -0.82,-1.486 -3.076,-3.896c-0.923,-0.974 -1.435,-1.948 -1.23,-2.256c0.256,-0.461 0.461,-0.461 0.718,-0.051c0.205,0.308 0.615,0.564 0.871,0.564c0.308,0 0.359,-0.256 0.154,-0.615c-0.257,-0.41 -0.103,-0.461 0.461,-0.256c1.026,0.358 1.128,-0.308 0.308,-1.846c-0.462,-0.82 -0.462,-1.128 -0,-1.282c0.307,-0.102 0.564,-0.461 0.564,-0.871c-0,-0.359 0.41,-0.974 0.871,-1.333c0.769,-0.667 0.821,-0.615 0.359,0.308c-0.871,1.948 -0.359,6.664 1.077,9.484c1.23,2.409 1.333,3.588 0.307,3.588c-0.256,0 -0.717,-0.359 -1.076,-0.769Z" style="fill:#ac560c;fill-rule:nonzero;"/><path d="M361.645,162.3c-3.538,-0.769 -3.025,-1.487 1.025,-1.384c4.511,0.051 9.33,1.025 7.997,1.538c-1.333,0.512 -6.1,0.461 -9.022,-0.154Z" style="fill:#ac560c;fill-rule:nonzero;"/><path d="M353.288,158.352c-3.024,-1.845 -6.869,-6.203 -7.228,-8.202c-0.205,-1.025 -0.769,-2.153 -1.333,-2.512c-1.128,-0.82 -1.231,-2.153 -0.154,-2.153c0.872,-0 1.077,-2.307 0.256,-2.82c-0.769,-0.461 -0.615,-3.845 0.154,-4.152c0.513,-0.154 0.667,-1.538 0.564,-5.332c-0.051,-2.768 -0.256,-5.28 -0.41,-5.537c-0.154,-0.307 0.051,-0.871 0.461,-1.281c0.41,-0.462 0.769,-1.026 0.769,-1.333c0,-0.308 0.462,-0.564 1.026,-0.564c0.769,-0 1.025,0.359 1.025,1.23c-0,0.718 0.256,1.436 0.513,1.589c0.307,0.154 0.512,1.077 0.512,2.051c0,0.974 0.257,2.358 0.615,3.178c0.564,1.436 0.564,1.436 0.974,-1.076c0.513,-3.332 1.026,-3.691 2.666,-2.102l1.333,1.333l0.308,-3.384l0.923,1.897c0.512,1.077 1.384,2.153 1.896,2.461c0.769,0.41 1.026,1.077 1.026,2.717c-0.052,1.948 -0.103,2.051 -0.769,1.179c-0.41,-0.564 -1.077,-0.82 -1.538,-0.666c-0.41,0.205 -0.769,0.051 -0.769,-0.308c-0,-0.359 -0.359,0.051 -0.769,0.872c-0.41,0.769 -0.769,1.743 -0.769,2.102c-0,1.076 1.589,2.409 2.461,2.05c0.41,-0.154 1.076,0 1.435,0.308c0.872,0.717 0.923,2.358 0.154,2.614c-0.769,0.257 0.512,2.974 1.435,2.974c0.359,-0 1.077,-0.462 1.538,-1.026c0.667,-0.717 1.026,-0.871 1.538,-0.41c0.462,0.359 0.667,0.359 0.667,0c-0,-0.307 -0.205,-0.717 -0.513,-0.871c-1.025,-0.615 -0.513,-1.282 0.974,-1.282c1.077,0 1.641,0.308 1.846,1.025c0.153,0.564 0.564,1.026 0.82,1.026c0.256,-0 0.461,0.564 0.461,1.281c0,0.718 0.257,1.282 0.513,1.282c0.308,0 0.513,0.359 0.513,0.769c-0,0.41 0.256,0.769 0.512,0.769c0.308,0 0.513,0.564 0.513,1.23c-0,0.974 -0.205,1.179 -0.974,0.974c-0.513,-0.153 -1.077,-0.051 -1.231,0.205c-0.615,0.975 -3.434,0.052 -4.203,-1.332c-0.513,-0.974 -0.718,-1.077 -0.769,-0.462c-0,1.026 -0.872,1.026 -2,0c-0.615,-0.615 -0.82,-0.564 -1.179,0.103c-0.82,1.486 -2.255,0.923 -2.05,-0.821c0.051,-0.153 -0.257,-0.563 -0.667,-0.922c-0.461,-0.359 -0.615,-1.179 -0.41,-2.256c0.256,-1.538 0.103,-1.743 -1.077,-1.948c-0.974,-0.205 -1.538,-0 -1.896,0.666c-0.718,1.436 -1.026,5.486 -0.411,5.845c0.308,0.205 0.103,0.717 -0.563,1.281c-0.564,0.462 -1.026,1.077 -1.026,1.333c0,1.179 2.461,5.332 3.486,5.896c1.077,0.615 1.538,1.486 0.769,1.486c-0.256,0 -1.076,-0.41 -1.948,-0.974Z" style="fill:#ac560c;fill-rule:nonzero;"/><path d="M384.714,143.69c-0.359,-6.151 -1.23,-9.74 -2.051,-8.253c-0.563,1.025 -1.435,0.615 -1.435,-0.667c0,-1.538 -2.461,-5.844 -4.306,-7.485c-2.153,-1.948 -4.05,-4.716 -3.691,-5.331c0.205,-0.257 -0.359,-0.974 -1.231,-1.59c-0.82,-0.615 -1.538,-1.435 -1.538,-1.794c0,-0.41 -0.41,-0.82 -0.923,-0.974c-0.717,-0.256 -0.871,-0.718 -0.717,-1.794c0.102,-0.82 -0.052,-2 -0.41,-2.615c-0.308,-0.564 -0.667,-1.589 -0.769,-2.153c-0.257,-1.282 -2.102,-3.332 -3.384,-3.742c-1.128,-0.359 -2.666,1.076 -3.435,3.229c-0.307,0.923 -0.512,1.641 -0.461,1.692c0.051,0.051 1.025,0.154 2.153,0.257c2.461,0.205 4.05,1.794 4.87,4.921c0.359,1.179 0.872,2.615 1.282,3.179c1.077,1.743 1.384,5.741 0.513,6.459c-0.411,0.359 -0.769,1.025 -0.769,1.487c-0.052,0.717 -0.103,0.717 -0.718,-0.103c-0.667,-0.82 -0.718,-0.82 -1.077,0.513c-0.256,1.076 -0.41,1.23 -0.82,0.615c-0.718,-1.128 -0.513,-5.178 0.308,-6.818c0.41,-0.769 0.769,-2.102 0.769,-2.922c-0,-1.385 -0.103,-1.487 -2.102,-1.487c-1.795,-0 -2.512,-0.359 -4.512,-2.153c-1.281,-1.179 -2.46,-2.666 -2.614,-3.23c-0.205,-0.667 -0.82,-1.077 -1.795,-1.179c-0.871,-0.103 -1.743,-0.41 -1.999,-0.667c-0.307,-0.256 -1.589,-0.461 -2.871,-0.461c-2.05,-0 -2.461,-0.205 -2.973,-1.282c-0.359,-0.717 -0.615,-1.64 -0.615,-1.999c-0,-1.128 1.435,-1.384 1.999,-0.41c0.359,0.615 0.513,0.666 0.564,0.154c-0,-0.769 1.435,-2.051 2.358,-2.102c0.308,-0 1.077,0.461 1.743,1.025c0.667,0.564 1.589,1.025 2.102,1.025c0.513,0 1.025,0.205 1.23,0.513c0.206,0.308 0.769,0.256 1.538,-0.103c0.667,-0.307 1.128,-0.768 0.974,-0.974c-0.205,-0.41 1.026,-0.82 2.871,-1.025c1.897,-0.205 2.564,0.103 2.564,1.077c-0,0.82 0.359,1.025 1.691,1.025c2.512,0 3.845,1.692 4.563,5.691c0.615,3.434 2.153,7.638 2.82,7.638c0.666,0 3.845,3.076 6.408,6.152c1.282,1.538 2.717,3.999 3.127,5.383c1.179,3.537 2,11.791 1.487,14.611c-0.359,2.05 -0.462,1.64 -0.718,-3.333Z" style="fill:#ac560c;fill-rule:nonzero;"/><path d="M340.677,114.623c-0.103,-1.384 -0.051,-2.871 0.154,-6.152c0.205,-2.82 0.564,-2.717 3.896,0.769c2.307,2.512 2.717,4.306 1.333,5.69c-1.026,1.026 -1.743,1.026 -1.743,0c-0,-0.41 0.256,-0.615 0.512,-0.461c0.308,0.154 0.513,0.051 0.513,-0.205c-0,-0.974 -1.487,-0.615 -2.153,0.461c-0.923,1.436 -2.461,1.333 -2.512,-0.102Z" style="fill:#ac560c;fill-rule:nonzero;"/></g><g><path d="M275.108,164.556c0.974,-1.128 2.153,-2.205 2.614,-2.359c0.462,-0.205 1.077,-0.871 1.436,-1.486c0.769,-1.436 3.383,-2.461 5.331,-2.051c0.821,0.154 1.385,0.051 1.385,-0.308c-0,-0.307 0.256,-0.563 0.512,-0.563c0.308,-0 0.513,0.717 0.513,1.537c-0,1.333 -0.205,1.538 -1.384,1.538c-1.077,0 -2.051,0.718 -3.845,2.666c-2.307,2.461 -2.615,2.666 -5.383,2.871l-2.973,0.256l1.794,-2.101Z" style="fill:#734c4b;fill-rule:nonzero;"/><path d="M290.488,155.738c0.564,-0.564 1.025,-1.487 1.025,-2.051c-0,-1.384 2.461,-3.486 4.768,-4.152c1.076,-0.257 2.307,-0.667 2.768,-0.821c0.718,-0.256 0.769,0 0.513,1.641c-0.154,1.025 -0.718,2.358 -1.179,2.871c-1.538,1.743 -5.178,3.537 -7.075,3.537l-1.846,0l1.026,-1.025Z" style="fill:#734c4b;fill-rule:nonzero;"/><path d="M302.484,144.562c-0.82,-0.513 -0.103,-2.102 1.538,-3.64c0.717,-0.718 1.333,-1.435 1.333,-1.692c-0,-0.615 3.178,-3.742 4.203,-4.152c0.513,-0.154 1.026,-0.974 1.231,-1.743c0.461,-2.205 1.845,-4.871 3.23,-6.203c0.82,-0.821 1.127,-1.59 0.922,-2.461c-0.102,-0.667 -0.051,-1.384 0.154,-1.487c0.256,-0.154 0.308,-0.718 0.154,-1.282c-0.205,-0.666 -0,-1.025 0.461,-1.025c1.077,0 2.307,-3.23 2.82,-7.433c0.359,-3.333 0.513,-3.589 1.692,-3.589c1.23,-0 1.23,-0 1.128,-5.024c-0,-2.768 -0.205,-5.229 -0.359,-5.486c-0.154,-0.307 0.102,-1.179 0.615,-2.05c0.871,-1.538 1.692,-2 1.692,-1.025c-0,0.307 0.359,0.512 0.769,0.512c1.025,0 0.974,0.872 -0.052,1.436c-0.717,0.41 -0.82,1.076 -0.512,4.511c0.154,2.256 0.461,6.972 0.666,10.612c0.257,5.639 0.205,6.511 -0.512,6.511c-0.411,-0 -1.128,0.923 -1.641,2.204c-1.025,2.564 -2.102,3.896 -3.691,4.512c-0.923,0.358 -1.179,0.82 -1.179,2.255c-0,1.487 -0.41,2.205 -2.153,3.845c-1.231,1.128 -2.615,2.051 -3.076,2.051c-0.718,-0 -0.821,0.41 -0.615,2.717c0.256,2.615 0.256,2.666 -1.436,3.435c-1.333,0.615 -1.743,1.128 -1.846,2.461c-0.153,1.589 -0.256,1.64 -2.563,1.64c-1.333,0 -2.666,-0.205 -2.973,-0.41Z" style="fill:#734c4b;fill-rule:nonzero;"/></g><g><path d="M365.592,147.023c-0.205,-0.308 -0.256,-0.718 -0.103,-0.872c0.308,-0.256 -0.153,-0.871 -1.743,-2.614c-1.64,-1.795 -4.921,-6.562 -5.331,-7.742c-0.205,-0.717 -1.026,-1.845 -1.846,-2.563c-1.179,-1.128 -1.435,-1.794 -1.538,-4.152c-0.051,-1.538 -0.512,-3.691 -1.025,-4.768c-0.564,-1.077 -0.974,-2.717 -0.974,-3.691c-0,-1.795 -0,-1.795 2.307,-1.795c2.05,0 2.409,0.154 2.922,1.436c0.359,0.769 1.025,1.948 1.538,2.614c1.538,2 1.077,6.716 -0.667,6.716c-0.82,0 -0.82,0.154 0.257,2.102c0.666,1.128 1.692,2.41 2.307,2.82c0.564,0.41 1.076,1.076 1.076,1.384c0.052,0.872 1.59,2.666 2.717,3.076c0.564,0.205 0.872,0.871 0.872,1.846c-0,1.076 0.308,1.538 1.077,1.743c0.871,0.256 1.025,0.615 0.871,2.512c-0.102,1.794 -0.359,2.255 -1.282,2.358c-0.563,0.102 -1.23,-0.103 -1.435,-0.41Z" style="fill:#834e28;fill-rule:nonzero;"/><path d="M375.589,118.57c-0.923,-0.974 -1.025,-1.281 -0.41,-1.281c0.41,-0 0.769,-0.411 0.769,-0.872c-0,-1.846 0.205,-2.102 1.743,-2.666c2.666,-0.923 3.178,-0.769 2.307,0.615c-0.41,0.616 -0.923,2.102 -1.128,3.333c-0.41,2.563 -1.436,2.819 -3.281,0.871Z" style="fill:#834e28;fill-rule:nonzero;"/><path d="M321.76,97.705c-0,-1.025 1.948,-3.999 2.614,-3.999c0.667,0 7.126,-6.613 7.126,-7.228c0,-0.923 -5.895,-6.665 -7.126,-6.921c-1.64,-0.41 -2.717,-1.179 -2.358,-1.794c0.256,-0.359 -2.256,-10.715 -3.076,-12.919c-0.205,-0.462 0,-1.641 0.461,-2.615c0.616,-1.333 0.718,-2.256 0.359,-4.204c-0.256,-1.384 -0.359,-2.666 -0.256,-2.871c0.103,-0.153 0,-0.461 -0.308,-0.666c-0.256,-0.154 -0.461,-1.077 -0.41,-1.999c0.052,-0.923 -0.102,-2 -0.359,-2.359c-0.205,-0.307 -0.461,-2.153 -0.563,-4.05c-0.103,-1.845 -0.359,-3.845 -0.616,-4.409c-1.179,-2.614 -1.538,-4.511 -1.179,-5.536c0.359,-0.872 -0.564,-3.589 -4.05,-11.638c-2.461,-5.793 -4.819,-11.483 -5.331,-12.713l-0.821,-2.205l1.333,0.154c1.077,0.102 1.538,0.564 2.102,2.204c1.538,4.46 8.613,19.584 9.946,21.378c1.743,2.205 2.102,5.691 0.666,6.255c-0.769,0.307 -0.82,0.974 -0.513,5.229c0.411,5.895 2.051,14.867 2.974,15.943c0.615,0.769 0.666,2.666 0.102,5.64c-0.461,2.358 1.59,8.92 2.871,9.227c0.564,0.154 1.128,0.769 1.333,1.333c0.513,1.538 5.639,6.819 7.383,7.536c0.769,0.308 1.691,1.231 2.05,2.051c0.308,0.769 1.231,2.051 2,2.768c1.435,1.333 1.435,1.436 0.615,3.128c-0.41,0.974 -0.923,1.794 -1.128,1.794c-0.513,-0 -3.025,-4.563 -3.025,-5.434c0,-0.41 -0.461,-0.718 -1.025,-0.718c-0.564,0 -1.025,0.205 -1.025,0.461c-0,0.205 -1.077,1.538 -2.41,2.974c-1.384,1.384 -3.23,3.486 -4.152,4.665c-1.18,1.487 -2.102,2.153 -2.974,2.153c-0.666,0 -1.23,-0.307 -1.23,-0.615Z" style="fill:#834e28;fill-rule:nonzero;"/><path d="M321.76,97.705c-0,-1.025 1.948,-3.999 2.614,-3.999c0.667,0 6.715,-6.771 7.126,-7.228c0.218,-0.242 0.384,1.313 1.117,0.878c0.642,-0.382 1.233,0.711 0.934,0.711c-0.564,0 -1.025,0.205 -1.025,0.461c-0,0.205 -1.077,1.538 -2.41,2.974c-1.384,1.384 -3.23,3.486 -4.152,4.665c-1.18,1.487 -2.102,2.153 -2.974,2.153c-0.666,0 -1.23,-0.307 -1.23,-0.615Z" style="fill:#734c4b;fill-rule:nonzero;"/></g><g><path d="M359.696,161.685c-3.229,-1.231 -4.357,-1.795 -5.639,-2.871l-1.281,-1.077l1.743,0.308c0.922,0.205 2.101,0.769 2.665,1.333c0.513,0.512 2.205,1.281 3.794,1.743c1.538,0.461 2.82,0.923 2.82,1.076c-0,0.41 -2.359,0.154 -4.102,-0.512Z" style="fill:#91440c;fill-rule:nonzero;"/><path d="M370.975,153.123c-0.974,-1.435 -2.256,-2.871 -2.922,-3.178c-2.205,-0.974 -1.026,-2.922 1.743,-2.922c1.179,-0 1.845,0.307 2.255,1.128c0.411,0.717 0.718,0.922 0.872,0.512c0.359,-1.128 1.384,-0.666 2.102,1.026c0.564,1.23 0.564,1.691 0.154,1.845c-0.359,0.103 -0.615,0.974 -0.615,1.897c-0,1.384 -0.769,2.461 -1.692,2.307c-0.052,-0 -0.923,-1.179 -1.897,-2.615Z" style="fill:#91440c;fill-rule:nonzero;"/><path d="M346.572,152.047c-1.333,-1.436 -4.306,-5.742 -4.306,-6.203c0,-0.052 0.615,-0.205 1.435,-0.257c1.795,-0.154 3.692,0.872 3.692,2c-0,0.512 0.256,1.538 0.564,2.358c0.666,1.589 0.922,3.742 0.461,3.742c-0.154,0 -1.025,-0.769 -1.846,-1.64Z" style="fill:#91440c;fill-rule:nonzero;"/><path d="M369.181,142.665c-0.462,-0.974 -1.18,-1.999 -1.59,-2.358c-1.025,-0.872 -0.974,-6.101 0.052,-6.101c0.41,0 0.769,0.308 0.769,0.718c-0,0.359 0.564,1.077 1.23,1.487c0.872,0.564 1.435,1.64 1.794,3.434c0.308,1.487 0.821,3.076 1.077,3.64c0.461,0.872 0.359,0.974 -0.974,0.974c-1.231,0 -1.692,-0.358 -2.358,-1.794Z" style="fill:#91440c;fill-rule:nonzero;"/><path d="M351.391,137.077c-1.025,-0.974 -1.999,-1.64 -2.102,-1.487c-0.41,0.359 -1.384,-2.973 -1.384,-4.665c0,-0.923 -0.256,-1.897 -0.564,-2.204c-0.307,-0.308 -0.615,-1.077 -0.717,-1.743c-0.821,-6.152 -1.436,-9.484 -1.846,-10.561c-0.564,-1.538 -0.615,-2.358 -0.051,-1.999c0.205,0.102 0.461,-0.667 0.461,-1.743c0.051,-1.128 -0.102,-2.154 -0.41,-2.307c-0.256,-0.205 -0.461,-0.616 -0.461,-0.923c0.051,-0.359 0.461,-0.103 0.974,0.564c0.564,0.615 1.333,1.025 1.743,0.82c0.512,-0.205 0.82,0.256 1.076,1.538c0.205,1.025 0.923,2.256 1.59,2.82c0.717,0.512 1.281,1.384 1.281,1.896c0,0.718 -0.154,0.769 -0.615,0.308c-0.359,-0.359 -0.718,-0.615 -0.923,-0.615c-0.461,-0 -0.256,4.819 0.257,5.639c1.179,1.794 1.794,3.281 1.794,4.306c-0,0.616 0.461,1.385 1.076,1.743c0.769,0.462 0.923,0.975 0.667,1.795c-0.308,1.025 -0.41,2.153 -0.256,4.87c0.051,0.615 0.358,1.128 0.82,1.128c0.82,-0 0.974,0.461 0.461,1.743c-0.461,1.128 -0.717,1.025 -2.871,-0.923Z" style="fill:#91440c;fill-rule:nonzero;"/><path d="M364.054,131.13c-0.154,-0.256 -0.718,-0.512 -1.23,-0.512c-1.333,-0 -2.615,-2.205 -2.615,-4.46c0,-2.871 0.564,-3.435 3.025,-3.076c1.743,0.205 2.102,0.102 2.102,-0.616c-0,-0.512 -0.564,-1.589 -1.282,-2.409c-1.435,-1.641 -1.897,-4.922 -0.513,-3.794c0.41,0.308 1.128,0.462 1.641,0.308c1.282,-0.41 1.948,0.154 2.614,2.204c0.769,2.153 0.769,4.307 0.103,4.973c-0.872,0.872 -1.589,6.408 -0.974,7.228c0.461,0.513 0.256,0.667 -0.974,0.667c-0.872,-0 -1.743,-0.205 -1.897,-0.513Z" style="fill:#91440c;fill-rule:nonzero;"/><path d="M370.719,116.776c-0.411,-0.82 -0.769,-2.205 -0.769,-3.076c-0,-2.512 -1.692,-4.306 -5.793,-6.306c-1.282,-0.615 -1.333,-0.769 -0.667,-1.333c1.179,-0.974 3.076,-0.307 5.434,1.795c1.641,1.486 2.102,2.358 2.564,4.716c0.307,1.589 0.769,3.537 1.025,4.358c0.615,1.948 -0.769,1.896 -1.794,-0.154Z" style="fill:#91440c;fill-rule:nonzero;"/><path d="M355.954,114.418c-0.154,-0.205 -1.794,-0.359 -3.537,-0.41l-3.23,-0.052l-0.154,-2.973c-0.154,-2.871 -0.102,-2.922 0.872,-2.307c0.871,0.513 1.333,0.513 2.563,-0.256c1.538,-0.872 1.538,-0.872 2.409,0.41c0.564,0.82 1.231,1.281 1.743,1.128c1.231,-0.308 2.564,0.563 2.564,1.691c-0,0.564 0.461,1.231 1.025,1.538c0.564,0.308 1.025,0.769 1.025,1.026c0,0.563 -4.767,0.717 -5.28,0.205Z" style="fill:#91440c;fill-rule:nonzero;"/><path d="M336.934,101.242c-0.205,-1.076 -0.564,-1.794 -0.82,-1.64c-0.82,0.512 -1.179,-2.256 -0.513,-3.845c0.359,-0.872 0.821,-1.538 1.077,-1.538c0.256,-0 0.308,-0.359 0.103,-0.872c-0.257,-0.666 -0.103,-0.769 0.922,-0.512c0.667,0.205 1.641,0.359 2.102,0.359c0.615,-0 0.974,0.615 1.231,2.307c0.41,2.768 -0.103,5.28 -0.923,4.46c-0.667,-0.667 -1.436,-0 -2.256,1.948c-0.564,1.23 -0.564,1.23 -0.923,-0.667Z" style="fill:#91440c;fill-rule:nonzero;"/></g><g><path d="M272.801,170.144c-0.359,-0.616 0.718,-3.999 1.435,-4.563c0.308,-0.256 1.333,-0.667 2.153,-0.82c0.923,-0.205 2.41,-1.333 3.794,-2.871c1.692,-1.897 2.666,-2.564 3.691,-2.564c0.821,0 1.641,-0.307 1.846,-0.717c0.205,-0.359 1.897,-1.436 3.742,-2.307c4.563,-2.256 7.331,-4.204 8.049,-5.793c0.359,-0.718 1.23,-1.692 1.948,-2.153c0.718,-0.462 1.282,-1.18 1.282,-1.538c-0,-0.411 0.41,-1.436 0.923,-2.307c0.82,-1.487 1.025,-1.59 2.87,-1.282c1.897,0.308 2,0.256 1.692,-0.82c-0.307,-1.282 1.589,-3.589 2.922,-3.589c0.564,0 0.667,-0.41 0.462,-1.743c-0.257,-1.64 -0,-2.051 2.871,-4.973c2.87,-2.871 3.127,-3.332 2.819,-4.819c-0.256,-1.486 -0.154,-1.691 1.231,-2.204c0.871,-0.308 2.05,-1.23 2.717,-2.102c1.538,-2.102 1.999,-1.999 1.999,0.41c0,1.231 -0.461,2.615 -1.282,3.845c-0.717,1.025 -1.281,2.051 -1.281,2.256c-0,0.871 -2.153,4.614 -3.845,6.613c-0.974,1.179 -1.794,2.615 -1.794,3.127c-0,0.564 -0.359,1.282 -0.769,1.641c-0.411,0.359 -0.769,0.923 -0.769,1.23c-0,1.179 -3.076,4.255 -4.461,4.563c-2.307,0.461 -4.255,2.256 -4.255,3.896c0,1.846 -2.102,4.153 -3.793,4.153c-0.923,-0 -2.564,1.281 -5.742,4.357c-4.563,4.358 -8.869,7.024 -13.893,8.51c-1.23,0.359 -2.205,0.923 -2.205,1.231c0,0.717 -3.998,1.896 -4.357,1.333Z" style="fill:#613b3a;fill-rule:nonzero;"/></g><g><path d="M371.18,150.509c-0.769,-0.923 -1.589,-1.641 -1.846,-1.538c-0.205,0.051 -0.41,-0.154 -0.41,-0.41c0,-0.308 -0.564,-1.077 -1.179,-1.692c-0.666,-0.615 -1.128,-1.384 -1.025,-1.743c0.102,-0.308 -0.051,-0.718 -0.308,-0.923c-0.307,-0.154 -0.564,-0.769 -0.564,-1.282c0,-0.512 -0.922,-1.691 -2.05,-2.563c-1.179,-0.923 -2.41,-2.358 -2.871,-3.281c-1.077,-2.153 -2.358,-4.409 -3.435,-5.947c-0.923,-1.333 -1.23,-4.614 -0.359,-4.614c0.308,0 0.513,0.359 0.513,0.769c-0,1.179 0.871,0.923 1.179,-0.359c0.359,-1.332 -2.256,-6.254 -3.486,-6.459c-0.667,-0.154 -0.769,0.051 -0.513,0.872c0.256,0.871 0.103,1.076 -0.871,1.076c-0.923,0 -1.436,-0.615 -2.461,-2.717c-0.718,-1.435 -1.641,-2.666 -2.051,-2.666c-1.23,-0.051 -1.948,-0.718 -2.871,-2.563c-0.974,-2.051 -0.666,-3.332 0.872,-3.691c0.718,-0.205 0.923,-0.564 0.666,-1.128c-0.512,-1.23 -0.871,-3.127 -0.564,-3.127c0.257,-0 4.461,4.101 4.461,4.409c-0,0.102 -0.359,0.205 -0.821,0.205c-0.461,-0 -0.717,0.256 -0.615,0.564c0.103,0.307 0.359,0.512 0.564,0.512c0.205,-0.051 0.718,-0.051 1.128,-0.051c0.41,-0 0.769,-0.359 0.769,-0.769c-0,-0.82 1.487,-0.513 2.358,0.564c0.256,0.359 1.538,0.769 2.82,0.974c1.948,0.256 2.717,0.769 5.485,3.589c1.743,1.845 3.179,3.639 3.23,3.947c0.256,3.999 0.205,4.101 -1.179,4.819c-1.692,0.872 -1.692,0.872 -2.666,-0.051c-0.666,-0.667 -0.769,-0.667 -1.077,0.256c-0.358,1.179 1.077,3.64 2,3.281c1.538,-0.615 4.409,4.306 4.409,7.587c-0,0.821 0.564,2.256 1.281,3.179c0.718,0.923 1.282,1.897 1.282,2.153c-0,0.256 0.461,0.872 1.025,1.384c0.564,0.462 1.026,1.436 1.026,2.102c-0,0.667 0.358,1.333 0.769,1.538c0.461,0.154 0.769,0.923 0.769,2.051c-0,3.742 -1.128,4.357 -3.384,1.743Z" style="fill:#713914;fill-rule:nonzero;"/><path d="M339.241,98.218c0.205,-2.256 -0.051,-3.538 -0.666,-3.435c-1.487,0.205 -1.794,-0.154 -1.794,-2.102c-0,-2.41 0.974,-3.537 2.153,-2.563c0.41,0.359 0.769,1.076 0.769,1.589c-0,0.718 0.359,0.974 1.333,0.974c0.769,-0 2.307,0.308 3.486,0.666l2.102,0.616l-2.307,0.307c-1.897,0.257 -2.102,0.41 -1.179,0.718c0.82,0.256 1.076,0.666 0.974,1.487c-0.154,0.564 -0.257,1.23 -0.257,1.486c-0.051,0.205 -0.512,0.359 -1.076,0.359c-0.564,0 -1.026,0.257 -1.026,0.513c0,0.307 -0.564,0.512 -1.281,0.512c-1.077,0 -1.282,-0.256 -1.231,-1.127Z" style="fill:#713914;fill-rule:nonzero;"/></g><g><path d="M278.184,168.195c-0,-1.486 1.64,-2.717 3.64,-2.717c0.974,-0.051 2.665,-0.358 3.793,-0.769c2.307,-0.82 8.972,-1.025 8.972,-0.256c-0,1.179 -7.844,3.948 -12.663,4.409c-3.486,0.308 -3.742,0.256 -3.742,-0.667Z" style="fill:#452d27;fill-rule:nonzero;"/><path d="M296.639,162.249c0,-1.795 1.641,-4.46 2.718,-4.46c0.358,-0 1.538,-0.821 2.614,-1.795c1.589,-1.384 2.461,-1.794 3.999,-1.794c1.794,-0 1.948,0.102 1.435,0.974c-0.717,1.435 -6.921,6.767 -9.022,7.895l-1.744,0.871l0,-1.691Z" style="fill:#452d27;fill-rule:nonzero;"/><path d="M286.386,162.402c0,-0.256 0.205,-0.512 0.41,-0.512c0.206,-0 2.41,-1.948 4.922,-4.358c3.178,-3.076 4.819,-4.357 5.742,-4.357c1.692,-0 3.793,-2.307 3.793,-4.153c0,-1.589 1.846,-3.332 4.05,-3.896c0.718,-0.154 1.743,-0.667 2.256,-1.077c0.82,-0.717 0.872,-0.666 0.872,1.077c-0,0.974 -0.154,2.204 -0.308,2.666c-0.461,1.128 -4.511,3.845 -5.793,3.845c-0.82,-0 -1.077,0.307 -1.077,1.486c0,1.077 -0.769,2.256 -3.127,4.666c-1.692,1.794 -3.947,3.639 -4.973,4.203c-1.948,0.974 -6.767,1.282 -6.767,0.41Z" style="fill:#452d27;fill-rule:nonzero;"/><path d="M308.943,142.768c0,-0.513 1.641,-3.435 2.102,-3.692c0.257,-0.205 0.462,-0.768 0.462,-1.332c-0,-0.564 0.871,-2.102 1.948,-3.435c1.025,-1.333 2.358,-3.333 2.871,-4.46c0.512,-1.128 1.127,-2.41 1.384,-2.82c0.82,-1.333 1.845,-3.742 3.024,-6.921c2,-5.537 2.769,-6.1 3.281,-2.512c0.718,5.486 0.257,9.177 -2.101,15.482c-1.333,3.486 -2.718,4.871 -2.718,2.666c0,-1.128 -0.615,-1.281 -2.101,-0.512c-0.564,0.307 -0.975,1.076 -0.975,1.845c0,1.846 -3.947,5.844 -5.741,5.844c-0.821,0 -1.436,-0.102 -1.436,-0.153Z" style="fill:#452d27;fill-rule:nonzero;"/></g><g><path d="M370.462,149.586c-0.512,-0.974 -0.666,-1.025 -1.435,-0.359c-1.026,0.872 -2.153,0.615 -2.153,-0.461c-0,-0.41 -0.205,-0.718 -0.462,-0.718c-0.923,0 -1.076,-1.692 -0.256,-2.307c0.923,-0.666 0.564,-1.794 -0.564,-1.794c-0.82,-0 -1.333,-1.282 -0.974,-2.307c0.205,-0.462 -0.051,-0.923 -0.615,-1.128c-1.282,-0.461 -2.717,-2.256 -2.769,-3.332c0,-1.385 0.872,-1.128 2.974,0.922c1.025,0.974 1.948,1.59 2.05,1.282c0.103,-0.308 0.359,-0.564 0.564,-0.564c0.359,0 0.616,1.436 0.564,3.999c0,1.076 0.257,1.64 0.718,1.64c0.41,0 0.82,0.359 1.025,0.769c0.154,0.411 0.667,0.769 1.077,0.769c0.461,0 0.718,0.205 0.564,0.462c-0.154,0.256 -0.051,1.179 0.256,2.05c0.667,1.948 0.308,2.666 -0.564,1.077Z" style="fill:#51270f;fill-rule:nonzero;"/><path d="M362.414,124.158c-0.154,-0.461 -0.052,-1.282 0.256,-1.743c0.82,-1.333 -0.308,-3.435 -1.948,-3.742c-1.384,-0.308 -2.717,0.461 -2.256,1.23c0.154,0.256 -0.102,0.461 -0.564,0.461c-0.461,0 -0.974,-0.461 -1.128,-0.974c-0.154,-0.564 -0.666,-1.076 -1.23,-1.23c-0.615,-0.154 -0.872,-0.564 -0.718,-0.974c0.154,-0.41 -0.051,-1.077 -0.512,-1.435c-0.769,-0.616 -1.077,-2.051 -0.462,-2.051c1.128,-0 4.717,1.384 5.537,2.153c0.923,0.872 1.589,1.128 2.409,1.025c0.205,-0.051 1.179,0.769 2.205,1.743c2.102,2.051 2.358,3.589 0.82,5.23c-1.282,1.332 -1.948,1.435 -2.409,0.307Z" style="fill:#51270f;fill-rule:nonzero;"/><path d="M341.395,101.909c-0.667,-0.974 -1.436,-2.153 -1.795,-2.615c-0.461,-0.717 -0.41,-1.025 0.257,-1.692c0.41,-0.461 1.127,-0.82 1.538,-0.82c0.41,0 0.871,-0.359 1.076,-0.769c0.154,-0.41 0.615,-0.769 1.025,-0.769c0.616,0 0.718,0.462 0.513,2.153c-0.41,3.384 -0.359,3.692 0.051,4.768c0.41,0.872 0.359,0.923 -0.359,0.359c-0.717,-0.564 -0.871,-0.513 -1.025,0.256c-0.102,0.718 -0.41,0.513 -1.281,-0.871Z" style="fill:#51270f;fill-rule:nonzero;"/></g><g><path d="M273.98,169.323c-0.872,-0.871 1.282,-2.512 4.819,-3.691c2.051,-0.666 4.921,-1.948 6.357,-2.768c1.435,-0.82 3.076,-1.487 3.64,-1.487c2.512,0 9.279,-5.588 11.176,-9.228c0.41,-0.769 1.897,-2.153 3.383,-3.127c1.59,-1.025 2.922,-2.307 3.333,-3.281c0.358,-0.871 2.307,-3.23 4.255,-5.229c2.614,-2.615 3.64,-3.999 3.64,-4.973c-0,-1.384 1.23,-2.358 3.024,-2.358c0.513,-0 1.077,-0.308 1.231,-0.615c0.358,-1.179 1.896,0.615 1.896,2.204c0,2 -3.178,7.382 -8.458,14.355c-3.948,5.177 -5.23,6.613 -6.05,6.613c-0.359,-0 -1.487,0.718 -2.461,1.589c-0.974,0.82 -2.307,1.846 -3.024,2.153c-0.718,0.359 -1.641,1.333 -2.051,2.256c-0.974,1.999 -4.357,3.742 -7.331,3.742c-1.179,0 -3.435,0.462 -4.973,1.026c-1.538,0.564 -3.229,0.871 -3.742,0.717c-0.615,-0.205 -1.384,0.103 -2.102,0.769c-1.179,1.128 -5.844,2.051 -6.562,1.333Z" style="fill:#351e15;fill-rule:nonzero;"/><path d="M361.388,137.949c-0.154,-0.513 -0.923,-1.538 -1.64,-2.256c-1.179,-1.128 -1.795,-2.051 -3.538,-5.075c-1.486,-2.615 -2.665,-5.178 -2.665,-5.845c-0,-0.41 -0.359,-1.384 -0.769,-2.204c-1.59,-2.974 -2.461,-5.588 -2.461,-7.075c0.102,-3.691 0.051,-3.588 1.179,-2.153c0.564,0.718 1.025,1.846 1.025,2.563c0,1.231 1.026,3.691 2.563,5.998c0.462,0.718 1.282,2.307 1.795,3.589c0.512,1.282 1.435,3.025 1.999,3.845c2.717,3.947 4.46,7.69 4.101,8.664c-0.41,1.076 -1.179,1.025 -1.589,-0.051Z" style="fill:#351e15;fill-rule:nonzero;"/><path d="M358.722,125.03c-0.871,-1.077 -1.589,-2.205 -1.589,-2.512c0,-0.257 -0.461,-1.026 -0.974,-1.692c-0.923,-1.179 -1.282,-2.461 -1.128,-3.845c0,-0.256 0.82,-0.513 1.743,-0.513c1.487,0.052 1.641,0.205 1.692,1.59c0.205,4.716 1.846,6.818 3.794,4.767c0.564,-0.615 1.025,-1.281 1.025,-1.538c0,-0.717 0.923,-0.461 1.23,0.359c0.411,1.077 -0.769,3.435 -1.538,3.127c-0.307,-0.102 -0.82,0.308 -1.179,1.026c-0.769,1.691 -1.23,1.538 -3.076,-0.769Z" style="fill:#351e15;fill-rule:nonzero;"/></g></g><text x="8.056px" y="221.215px" style="font-family:'BiteChocolate', 'Bite Chocolate';font-size:44.966px;">Entre Tarcos y Choloncas</text><text x="241.336px" y="269.257px" style="font-family:'Times-Roman', 'Times';font-size:18.179px;">EN MI CHURA TARA</text><path d="M241.54,273.885l185.831,0" style="fill:none;stroke:#000;stroke-width:1px;"/></svg>